<svg width="24" height="24" viewBox="0 0 24 24" fill="none" xmlns="http://www.w3.org/2000/svg">
<path fill-rule="evenodd" clip-rule="evenodd" d="M7 14H16.5V10H7V14ZM4.5 8C3.67157 8 3 8.67157 3 9.5V14.5C3 15.3284 3.67157 16 4.5 16H17C17.8284 16 18.5 15.3284 18.5 14.5V9.5C18.5 8.67157 17.8284 8 17 8H4.5ZM19.9949 13.9383C19.7273 14.0064 19.5 13.7761 19.5 13.5V10.5C19.5 10.2239 19.7273 9.99359 19.9949 10.0617C20.8601 10.282 21.5 11.0663 21.5 12C21.5 12.9337 20.8601 13.718 19.9949 13.9383Z" fill="black"/>
</svg>
