<svg width="24" height="24" viewBox="0 0 24 24" fill="none" xmlns="http://www.w3.org/2000/svg">
<path fill-rule="evenodd" clip-rule="evenodd" d="M3 9.5C3 8.67157 3.67157 8 4.5 8H17C17.8284 8 18.5 8.67157 18.5 9.5V14.5C18.5 15.3284 17.8284 16 17 16H4.5C3.67157 16 3 15.3284 3 14.5V9.5ZM16.5 14H11V10H16.5V14Z" fill="black"/>
<path d="M19.5 13.5C19.5 13.7761 19.7273 14.0064 19.9949 13.9383C20.8601 13.718 21.5 12.9337 21.5 12C21.5 11.0663 20.8601 10.282 19.9949 10.0617C19.7273 9.99359 19.5 10.2239 19.5 10.5V13.5Z" fill="black"/>
</svg>
