<svg width="24" height="24" viewBox="0 0 24 24" fill="none" xmlns="http://www.w3.org/2000/svg">
<path fill-rule="evenodd" clip-rule="evenodd" d="M3 9.5C3 8.67157 3.67157 8 4.5 8H17C17.8284 8 18.5 8.67157 18.5 9.5V14.5C18.5 15.3284 17.8284 16 17 16H4.5C3.67157 16 3 15.3284 3 14.5V9.5ZM10.8354 9.32916C11.2059 9.5144 11.3561 9.96491 11.1708 10.3354L10.7135 11.25H11.9C12.1599 11.25 12.4013 11.3846 12.538 11.6057C12.6746 11.8268 12.6871 12.1029 12.5708 12.3354L11.5708 14.3354C11.3856 14.7059 10.9351 14.856 10.5646 14.6708C10.1941 14.4856 10.0439 14.0351 10.2292 13.6646L10.6865 12.75H9.5C9.24007 12.75 8.99867 12.6154 8.86201 12.3943C8.72536 12.1732 8.71293 11.8971 8.82918 11.6646L9.82918 9.66457C10.0144 9.29409 10.4649 9.14392 10.8354 9.32916Z" fill="black"/>
<path d="M19.9949 13.9383C19.7273 14.0064 19.5 13.7761 19.5 13.5V10.5C19.5 10.2239 19.7273 9.99359 19.9949 10.0617C20.8601 10.282 21.5 11.0663 21.5 12C21.5 12.9337 20.8601 13.718 19.9949 13.9383Z" fill="black"/>
</svg>
