<svg width="24" height="24" viewBox="0 0 24 24" fill="none" xmlns="http://www.w3.org/2000/svg">
<path d="M12 1C11.4937 1 11.0833 1.41041 11.0833 1.91667V2.83333C11.0833 3.33959 11.4937 3.75 12 3.75C12.5063 3.75 12.9167 3.33959 12.9167 2.83333V1.91667C12.9167 1.41041 12.5063 1 12 1Z" fill="black"/>
<path d="M12 20.25C11.4937 20.25 11.0833 20.6604 11.0833 21.1667V22.0833C11.0833 22.5896 11.4937 23 12 23C12.5062 23 12.9166 22.5896 12.9166 22.0833V21.1667C12.9166 20.6604 12.5062 20.25 12 20.25Z" fill="black"/>
<path d="M19.7782 4.22183C19.4202 3.86385 18.8398 3.86385 18.4818 4.22183L17.8336 4.87001C17.4756 5.22799 17.4756 5.80839 17.8336 6.16637C18.1916 6.52435 18.772 6.52435 19.13 6.16637L19.7782 5.51819C20.1361 5.16021 20.1361 4.57981 19.7782 4.22183Z" fill="black"/>
<path d="M6.16635 17.8337C5.80837 17.4757 5.22797 17.4757 4.86999 17.8337L4.22181 18.4819C3.86383 18.8398 3.86383 19.4202 4.22181 19.7782C4.57979 20.1362 5.16019 20.1362 5.51817 19.7782L6.16635 19.13C6.52433 18.7721 6.52433 18.1917 6.16635 17.8337Z" fill="black"/>
<path d="M23 12C23 12.5063 22.5895 12.9167 22.0833 12.9167H21.1666C20.6604 12.9167 20.25 12.5063 20.25 12C20.25 11.4938 20.6604 11.0834 21.1666 11.0834H22.0833C22.5895 11.0834 23 11.4938 23 12Z" fill="black"/>
<path d="M4.025 12C4.025 12.5063 3.61459 12.9167 3.10833 12.9167L1.91667 12.9167C1.4104 12.9167 1 12.5063 1 12C1 11.4937 1.41041 11.0833 1.91667 11.0833H3.10833C3.61459 11.0833 4.025 11.4937 4.025 12Z" fill="black"/>
<path d="M19.7781 19.7782C20.1361 19.4202 20.1361 18.8398 19.7781 18.4818L19.1299 17.8337C18.772 17.4757 18.1916 17.4757 17.8336 17.8337C17.4756 18.1916 17.4756 18.772 17.8336 19.13L18.4818 19.7782C18.8397 20.1362 19.4201 20.1362 19.7781 19.7782Z" fill="black"/>
<path d="M6.36076 6.36088C6.71874 6.0029 6.71874 5.4225 6.36076 5.06452L5.51812 4.22188C5.16014 3.8639 4.57974 3.8639 4.22176 4.22188C3.86378 4.57986 3.86378 5.16026 4.22176 5.51824L5.06439 6.36088C5.42237 6.71886 6.00278 6.71886 6.36076 6.36088Z" fill="black"/>
<path d="M12 18C15.3137 18 18 15.3137 18 12C18 8.68629 15.3137 6 12 6C8.68629 6 6 8.68629 6 12C6 15.3137 8.68629 18 12 18Z" fill="black"/>
</svg>
