<svg width="24" height="24" viewBox="0 0 24 24" fill="none" xmlns="http://www.w3.org/2000/svg">
<path fill-rule="evenodd" clip-rule="evenodd" d="M12 1C11.4937 1 11.0833 1.41041 11.0833 1.91667V2.83333C11.0833 3.33959 11.4937 3.75 12 3.75C12.5063 3.75 12.9167 3.33959 12.9167 2.83333V1.91667C12.9167 1.41041 12.5063 1 12 1ZM12 20.25C11.4937 20.25 11.0833 20.6604 11.0833 21.1667V22.0833C11.0833 22.5896 11.4937 23 12 23C12.5062 23 12.9166 22.5896 12.9166 22.0833V21.1667C12.9166 20.6604 12.5062 20.25 12 20.25ZM23 12C23 11.4938 22.5895 11.0834 22.0833 11.0834H21.1666C20.6604 11.0834 20.25 11.4938 20.25 12C20.25 12.5063 20.6604 12.9167 21.1666 12.9167H22.0833C22.5895 12.9167 23 12.5063 23 12ZM4.025 12C4.025 11.4937 3.61459 11.0833 3.10833 11.0833H1.91667C1.4104 11.0833 1 11.4937 1 12C1 12.5063 1.41041 12.9167 1.91667 12.9167L3.10833 12.9167C3.61459 12.9167 4.025 12.5063 4.025 12ZM12 16C13.6229 16 15.02 15.0335 15.6473 13.6448C15.4354 13.6722 15.2193 13.6863 15 13.6863C12.2386 13.6863 10 11.4477 10 8.68628C10 8.63528 10.0008 8.58445 10.0023 8.53381C8.80542 9.2251 8 10.5185 8 12C8 14.2091 9.79086 16 12 16ZM18 12C18 12.2431 17.9855 12.4828 17.9575 12.7183C17.6025 15.6933 15.0706 18 12 18C8.68629 18 6 15.3137 6 12C6 9.13461 8.00859 6.73836 10.6946 6.14241C10.7266 6.13532 10.7586 6.12848 10.7908 6.1219C11.1814 6.04197 11.5858 6 12 6C15.3137 6 18 8.68629 18 12Z" fill="black"/>
</svg>
