<svg width="24" height="24" viewBox="0 0 24 24" fill="none" xmlns="http://www.w3.org/2000/svg">
<path d="M3 4.5C3 3.67157 3.67157 3 4.5 3H19.5C20.3284 3 21 3.67157 21 4.5V19.5C21 20.3284 20.3284 21 19.5 21H4.5C3.67157 21 3 20.3284 3 19.5V4.5ZM5 5V19H19V5H5Z" fill="black"/>
<path d="M7.75 11.75C7.33579 12.1642 7.33579 12.8358 7.75 13.25L10.5 16L16.25 10.25C16.6642 9.83579 16.6642 9.16421 16.25 8.75C15.8358 8.33579 15.1642 8.33579 14.75 8.75L10.5 13L9.25 11.75C8.83579 11.3358 8.16421 11.3358 7.75 11.75Z" fill="black"/>
</svg>
