<svg width="24" height="24" viewBox="0 0 24 24" fill="none" xmlns="http://www.w3.org/2000/svg">
<path d="M12 22C17.5228 22 22 17.5228 22 12C22 6.47715 17.5228 2 12 2C6.47715 2 2 6.47715 2 12C2 17.5228 6.47715 22 12 22ZM7.7574 7.75725C8.14792 7.36672 8.78109 7.36672 9.17161 7.75725L12.0001 10.5857L14.8284 7.75732C15.219 7.36679 15.8521 7.3668 16.2427 7.75732C16.6332 8.14784 16.6332 8.78101 16.2427 9.17153L13.4143 11.9999L16.2427 14.8283C16.6332 15.2188 16.6332 15.852 16.2427 16.2425C15.8522 16.6331 15.219 16.6331 14.8285 16.2425L12.0001 13.4141L9.17158 16.2426C8.78106 16.6331 8.1479 16.6331 7.75737 16.2426C7.36685 15.8521 7.36685 15.2189 7.75737 14.8284L10.5858 11.9999L7.7574 9.17146C7.36688 8.78094 7.36688 8.14777 7.7574 7.75725Z" fill="black"/>
</svg>
