<svg width="24" height="24" viewBox="0 0 24 24" fill="none" xmlns="http://www.w3.org/2000/svg">
<path d="M7.75737 7.7574C8.1479 7.36688 8.78106 7.36688 9.17158 7.7574L12.0001 10.5859L14.8285 7.75747C15.219 7.36695 15.8522 7.36695 16.2427 7.75747C16.6332 8.14799 16.6332 8.78116 16.2427 9.17168L13.4143 12.0001L16.2427 14.8285C16.6332 15.219 16.6332 15.8522 16.2427 16.2427C15.8521 16.6332 15.219 16.6332 14.8284 16.2427L12.0001 13.4143L9.17161 16.2428C8.78109 16.6333 8.14792 16.6333 7.7574 16.2428C7.36688 15.8522 7.36688 15.2191 7.7574 14.8285L10.5858 12.0001L7.75737 9.17161C7.36685 8.78109 7.36685 8.14792 7.75737 7.7574Z" fill="black"/>
<path d="M22 12C22 17.5228 17.5228 22 12 22C6.47715 22 2 17.5228 2 12C2 6.47715 6.47715 2 12 2C17.5228 2 22 6.47715 22 12ZM20 12C20 7.58172 16.4183 4 12 4C7.58172 4 4 7.58172 4 12C4 16.4183 7.58172 20 12 20C16.4183 20 20 16.4183 20 12Z" fill="black"/>
</svg>
