<svg width="24" height="24" viewBox="0 0 24 24" fill="none" xmlns="http://www.w3.org/2000/svg">
<path fill-rule="evenodd" clip-rule="evenodd" d="M4.25 7.29999C4.94036 7.29999 5.5 6.74034 5.5 6.04999C5.5 5.35963 4.94036 4.79999 4.25 4.79999C3.55964 4.79999 3 5.35963 3 6.04999C3 6.74034 3.55964 7.29999 4.25 7.29999ZM8 5C7.44772 5 7 5.44772 7 6C7 6.55228 7.44772 7 8 7H20C20.5523 7 21 6.55228 21 6C21 5.44772 20.5523 5 20 5H8ZM8 11C7.44772 11 7 11.4477 7 12C7 12.5523 7.44772 13 8 13H20C20.5523 13 21 12.5523 21 12C21 11.4477 20.5523 11 20 11H8ZM20 17C20.5523 17 21 17.4477 21 18C21 18.5523 20.5523 19 20 19H8C7.44772 19 7 18.5523 7 18C7 17.4477 7.44772 17 8 17H20ZM5.5 12.05C5.5 12.7403 4.94036 13.3 4.25 13.3C3.55964 13.3 3 12.7403 3 12.05C3 11.3596 3.55964 10.8 4.25 10.8C4.94036 10.8 5.5 11.3596 5.5 12.05ZM4.25 19.3C4.94036 19.3 5.5 18.7403 5.5 18.05C5.5 17.3596 4.94036 16.8 4.25 16.8C3.55964 16.8 3 17.3596 3 18.05C3 18.7403 3.55964 19.3 4.25 19.3Z" fill="black"/>
</svg>
