<svg width="24" height="24" viewBox="0 0 24 24" fill="none" xmlns="http://www.w3.org/2000/svg">
<path d="M14.4494 2.43934C14.1681 2.15803 13.7865 2 13.3887 2H5.52002C4.69159 2 4.02002 2.67157 4.02002 3.5L4.02004 20.5C4.02004 21.3284 4.69162 22 5.52004 22H18.5166C19.3385 22 20.0071 21.3387 20.0093 20.5168C20.0098 20.3518 20.01 20.1785 20.01 20V8.62132C20.01 8.2235 19.852 7.84196 19.5707 7.56066L14.4494 2.43934ZM16.01 17C16.01 17.5523 15.5623 18 15.01 18H9.01002C8.45773 18 8.01002 17.5523 8.01002 17C8.01002 16.4477 8.45773 16 9.01002 16H15.01C15.5623 16 16.01 16.4477 16.01 17ZM16.01 13C16.01 13.5523 15.5623 14 15.01 14H9.01002C8.45773 14 8.01002 13.5523 8.01002 13C8.01002 12.4477 8.45773 12 9.01002 12H15.01C15.5623 12 16.01 12.4477 16.01 13ZM14.51 9C13.6816 9 13.01 8.32843 13.01 7.5V3.5L18.51 9H14.51Z" fill="black"/>
</svg>
