<svg width="24" height="24" viewBox="0 0 24 24" fill="none" xmlns="http://www.w3.org/2000/svg">
<path fill-rule="evenodd" clip-rule="evenodd" d="M4.02002 3.5L4.02004 20.5C4.02004 21.3284 4.69162 22 5.52004 22H18.5166C19.3385 22 20.0071 21.3387 20.0093 20.5168C20.0098 20.3518 20.01 20.1785 20.01 20V8.62132C20.01 8.2235 19.852 7.84196 19.5707 7.56066L14.4494 2.43934C14.1681 2.15803 13.7865 2 13.3887 2H5.52002C4.69159 2 4.02002 2.67157 4.02002 3.5ZM7.74999 14.25C7.33578 13.8358 7.33578 13.1642 7.74999 12.75C8.1642 12.3358 8.83578 12.3358 9.24999 12.75L10.5 14L14.75 9.74999C15.1642 9.33578 15.8358 9.33578 16.25 9.74999C16.6642 10.1642 16.6642 10.8358 16.25 11.25L10.5 17L7.74999 14.25Z" fill="black"/>
</svg>
