<svg width="24" height="24" viewBox="0 0 24 24" fill="none" xmlns="http://www.w3.org/2000/svg">
<path fill-rule="evenodd" clip-rule="evenodd" d="M13.3787 2C13.7765 2 14.158 2.15804 14.4393 2.43934L19.5607 7.56066C19.842 7.84196 20 8.2235 20 8.62132V20.5C20 21.3284 19.3284 22 18.5 22H18H5.99H5.49993C4.67151 22 4 21.3284 4 20.5V4V3.49998C4 2.67156 4.67157 2 5.5 2H13.3787ZM6 20H18V9L13 4H6V20ZM7.74999 14.25C7.33578 13.8358 7.33578 13.1642 7.74999 12.75C8.1642 12.3358 8.83578 12.3358 9.24999 12.75L10.5 14L14.75 9.74999C15.1642 9.33578 15.8358 9.33578 16.25 9.74999C16.6642 10.1642 16.6642 10.8358 16.25 11.25L10.5 17L7.74999 14.25Z" fill="black"/>
</svg>
