<svg width="24" height="24" viewBox="0 0 24 24" fill="none" xmlns="http://www.w3.org/2000/svg">
<path d="M8 17C8 16.4477 8.44772 16 9 16H15C15.5523 16 16 16.4477 16 17C16 17.5523 15.5523 18 15 18H9C8.44772 18 8 17.5523 8 17ZM8 13C8 12.4477 8.44772 12 9 12H15C15.5523 12 16 12.4477 16 13C16 13.5523 15.5523 14 15 14H9C8.44772 14 8 13.5523 8 13ZM14.4393 2.43934C14.158 2.15804 13.7765 2 13.3787 2H5.5C4.67157 2 4 2.67156 4 3.49998C4 3.65994 4 3.82751 4 4V20.5C4 21.3284 4.67151 22 5.49993 22C5.65668 22 5.82086 22 5.99 22H18C18.1725 22 18.3401 22 18.5 22C19.3284 22 20 21.3284 20 20.5V8.62132C20 8.2235 19.842 7.84196 19.5607 7.56066L14.4393 2.43934ZM18 20H6V4H13V7.5C13 8.32843 13.6716 9 14.5 9H18V20Z" fill="black"/>
</svg>
