<svg width="24" height="24" viewBox="0 0 24 24" fill="none" xmlns="http://www.w3.org/2000/svg">
<path d="M14.5 2H9.5L8.5 3H5C4.44772 3 4 3.44772 4 4C4 4.55228 4.44772 5 5 5H19C19.5523 5 20 4.55228 20 4C20 3.44772 19.5523 3 19 3H15.5L14.5 2Z" fill="black"/>
<path d="M9 12C9 11.4477 9.44771 11 10 11C10.5523 11 11 11.4477 11 12V16C11 16.5523 10.5523 17 10 17C9.44771 17 9 16.5523 9 16V12Z" fill="black"/>
<path d="M14 11C13.4477 11 13 11.4477 13 12V16C13 16.5523 13.4477 17 14 17C14.5523 17 15 16.5523 15 16V12C15 11.4477 14.5523 11 14 11Z" fill="black"/>
<path d="M19 6H5V20C5 21.1 5.9 22 7 22H17C18.1 22 19 21.1 19 20V6ZM17 8V20H7V8H17Z" fill="black"/>
</svg>
