<svg width="24" height="24" viewBox="0 0 24 24" fill="none" xmlns="http://www.w3.org/2000/svg">
<path d="M12.884 1.64484C12.3573 1.26064 11.6427 1.26064 11.116 1.64485L9.11069 3.10764L6.62854 3.10291C5.9766 3.10167 5.3985 3.52168 5.19822 4.1421L4.43569 6.50422L2.42481 7.95937C1.89665 8.34157 1.67584 9.02116 1.87848 9.64081L2.65 12L1.87848 14.3592C1.67584 14.9789 1.89665 15.6585 2.42482 16.0407L4.43569 17.4958L5.19822 19.8579C5.39851 20.4783 5.9766 20.8984 6.62855 20.8971L9.11069 20.8924L11.116 22.3552C11.6427 22.7394 12.3573 22.7394 12.884 22.3552L14.8893 20.8924L17.3715 20.8971C18.0234 20.8984 18.6015 20.4783 18.8018 19.8579L19.5643 17.4958L21.5752 16.0407C22.1033 15.6585 22.3242 14.9789 22.1215 14.3592L21.35 12L22.1215 9.64081C22.3242 9.02116 22.1033 8.34157 21.5752 7.95937L19.5643 6.50422L18.8018 4.1421C18.6015 3.52168 18.0234 3.10167 17.3715 3.10291L14.8893 3.10764L12.884 1.64484ZM17.0105 5.1036L17.8619 7.74106L20.1072 9.36582L19.2458 12L20.1072 14.6342L17.8619 16.259L17.0105 18.8964L14.2391 18.8912L12 20.5245L9.76093 18.8912L6.98946 18.8964L6.13805 16.259L3.89278 14.6342L4.75423 12L3.89278 9.36582L6.13805 7.74106L6.98946 5.1036L9.76093 5.10888L12 3.47558L14.2391 5.10888L17.0105 5.1036ZM8.49999 8.00002C9.32842 8.00002 9.99999 8.67159 9.99999 9.50002C9.99999 10.3284 9.32842 11 8.49999 11C7.67156 11 6.99999 10.3284 6.99999 9.50002C6.99999 8.67159 7.67156 8.00002 8.49999 8.00002ZM14 14.5C14 15.3284 14.6716 16 15.5 16C16.3284 16 17 15.3284 17 14.5C17 13.6716 16.3284 13 15.5 13C14.6716 13 14 13.6716 14 14.5ZM15.7071 10.1213C16.0976 9.73077 16.0976 9.0976 15.7071 8.70708C15.3166 8.31655 14.6834 8.31655 14.2929 8.70708L8.63601 14.3639C8.24549 14.7545 8.24549 15.3876 8.63601 15.7781C9.02653 16.1687 9.6597 16.1687 10.0502 15.7781L15.7071 10.1213Z" fill="black"/>
</svg>
