<svg width="24" height="24" viewBox="0 0 24 24" fill="none" xmlns="http://www.w3.org/2000/svg">
<path d="M12.884 1.64485L14.8893 3.10764L17.3715 3.10291C18.0234 3.10167 18.6015 3.52168 18.8018 4.1421L19.5643 6.50422L21.5752 7.95937C22.1033 8.34157 22.3242 9.02116 22.1215 9.64081L21.35 12L22.1215 14.3592C22.3242 14.9789 22.1033 15.6585 21.5752 16.0407L19.5643 17.4958L18.8018 19.8579C18.6015 20.4783 18.0234 20.8984 17.3715 20.8971L14.8893 20.8924L12.884 22.3552C12.3573 22.7394 11.6427 22.7394 11.116 22.3552L9.11069 20.8924L6.62854 20.8971C5.9766 20.8984 5.3985 20.4783 5.19822 19.8579L4.43569 17.4958L2.42481 16.0407C1.89665 15.6585 1.67584 14.9789 1.87848 14.3592L2.65 12L1.87848 9.64081C1.67584 9.02116 1.89665 8.34157 2.42482 7.95937L4.43569 6.50422L5.19822 4.1421C5.39851 3.52168 5.9766 3.10167 6.62855 3.10291L9.11069 3.10764L11.116 1.64484C11.6427 1.26064 12.3573 1.26064 12.884 1.64485ZM8.5 8.00002C7.67157 8.00002 7 8.67159 7 9.50002C7 10.3284 7.67157 11 8.5 11C9.32843 11 10 10.3284 10 9.50002C10 8.67159 9.32843 8.00002 8.5 8.00002ZM14 14.5C14 15.3284 14.6716 16 15.5 16C16.3284 16 17 15.3284 17 14.5C17 13.6716 16.3284 13 15.5 13C14.6716 13 14 13.6716 14 14.5ZM15.7071 10.1213C16.0976 9.73077 16.0976 9.0976 15.7071 8.70708C15.3166 8.31655 14.6834 8.31655 14.2929 8.70708L8.63601 14.3639C8.24549 14.7545 8.24549 15.3876 8.63601 15.7781C9.02653 16.1687 9.6597 16.1687 10.0502 15.7781L15.7071 10.1213Z" fill="black"/>
</svg>
