<svg width="24" height="24" viewBox="0 0 24 24" fill="none" xmlns="http://www.w3.org/2000/svg">
<path fill-rule="evenodd" clip-rule="evenodd" d="M17.6569 6.34311C14.5324 3.21864 9.46759 3.21864 6.34311 6.34311C3.21864 9.46759 3.21864 14.5324 6.34311 17.6569C9.46759 20.7814 14.5324 20.7814 17.6569 17.6569C20.7814 14.5324 20.7814 9.46759 17.6569 6.34311ZM19.0711 4.9289C15.1656 1.02337 8.83442 1.02337 4.9289 4.9289C1.02337 8.83442 1.02337 15.1656 4.9289 19.0711C8.83442 22.9766 15.1656 22.9766 19.0711 19.0711C22.9766 15.1656 22.9766 8.83442 19.0711 4.9289Z" fill="black"/>
<path fill-rule="evenodd" clip-rule="evenodd" d="M12 6C12.5523 6 13 6.44772 13 7V11.5857L13.3179 11.2679C13.7084 10.8773 14.3416 10.8773 14.7321 11.2679C15.1226 11.6584 15.1226 12.2916 14.7321 12.6821L12.7129 14.7012C12.6915 14.7231 12.669 14.7439 12.6455 14.7638C12.576 14.8226 12.5004 14.8705 12.4209 14.9074C12.2929 14.9668 12.1503 15 12 15C11.8588 15 11.7245 14.9708 11.6027 14.918C11.4902 14.8693 11.3848 14.799 11.2929 14.7071L9.26787 12.6821C8.87734 12.2916 8.87734 11.6584 9.26787 11.2679C9.65839 10.8773 10.2916 10.8773 10.6821 11.2679L11 11.5858V7C11 6.44772 11.4477 6 12 6ZM9.1711 14.8289C8.78057 14.4384 8.14741 14.4384 7.75688 14.8289C7.36636 15.2194 7.36636 15.8526 7.75688 16.2431C10.1004 18.5866 13.8986 18.5866 16.2421 16.2431C16.6326 15.8526 16.6326 15.2194 16.2421 14.8289C15.8516 14.4384 15.2184 14.4384 14.8279 14.8289C13.2654 16.3914 10.7336 16.3914 9.1711 14.8289Z" fill="black"/>
</svg>
