<svg width="24" height="24" viewBox="0 0 24 24" fill="none" xmlns="http://www.w3.org/2000/svg">
<path d="M16.5 2.82495C14.76 2.82495 13.09 3.63495 12 4.91495C10.91 3.63495 9.24 2.82495 7.5 2.82495C4.42 2.82495 2 5.24495 2 8.32495C2 12.105 5.4 15.185 10.55 19.865L10.9906 20.263C11.5633 20.7804 12.4352 20.7788 13.0059 20.2592L13.45 19.855C18.6 15.185 22 12.105 22 8.32495C22 5.24495 19.58 2.82495 16.5 2.82495ZM12.1 18.375L12 18.475L11.9 18.375C7.14 14.065 4 11.215 4 8.32495C4 6.32495 5.5 4.82495 7.5 4.82495C8.71559 4.82495 9.90625 5.44178 10.6146 6.37544C10.9541 6.82284 11.4402 7.18495 12.0018 7.18495C12.5666 7.18495 13.0546 6.81863 13.3956 6.36842C14.0997 5.43869 15.2875 4.82495 16.5 4.82495C18.5 4.82495 20 6.32495 20 8.32495C20 11.215 16.86 14.065 12.1 18.375Z" fill="black"/>
</svg>
