<svg width="24" height="24" viewBox="0 0 24 24" fill="none" xmlns="http://www.w3.org/2000/svg">
<path d="M19 2C19.5523 2 20 2.44772 20 3V5H22C22.5523 5 23 5.44772 23 6C23 6.55228 22.5523 7 22 7H20V9C20 9.55228 19.5523 10 19 10C18.4477 10 18 9.55228 18 9V7H16C15.4477 7 15 6.55228 15 6C15 5.44772 15.4477 5 16 5H18V3C18 2.44772 18.4477 2 19 2ZM15.3333 21L13.6296 16.4H6.37037L4.66667 21H2L8.5458 3.32634C8.61845 3.1302 8.80551 3 9.01467 3H10.9853C11.1945 3 11.3816 3.1302 11.4542 3.32634L18 21H15.3333ZM10 6.6L7.25926 14H12.7407L10 6.6Z" fill="black"/>
</svg>
