<svg width="24" height="24" viewBox="0 0 24 24" fill="none" xmlns="http://www.w3.org/2000/svg">
<path d="M12 22C17.5228 22 22 17.5228 22 12C22 6.47715 17.5228 2 12 2C6.47715 2 2 6.47715 2 12C2 17.5228 6.47715 22 12 22ZM11.9007 6.5C12.2871 6.50003 12.639 6.72273 12.8044 7.072L16.7038 15.306C16.9401 15.8052 16.7271 16.4015 16.228 16.6378C15.7289 16.8742 15.1326 16.6612 14.8962 16.1621L14.1092 14.5002H9.69056L8.90369 16.161C8.66723 16.6601 8.07093 16.873 7.57183 16.6366C7.07273 16.4001 6.85982 15.8038 7.09629 15.3047L10.9969 7.07184C11.1623 6.72261 11.5142 6.49997 11.9007 6.5ZM11.9004 9.83601L13.1621 12.5002H10.6381L11.9004 9.83601Z" fill="black"/>
</svg>
