<svg width="24" height="24" viewBox="0 0 24 24" fill="none" xmlns="http://www.w3.org/2000/svg">
<path d="M7.01996 13.5C4.80996 13.5 3.01996 15.29 3.01996 17.5C3.01996 19.71 4.80996 21.5 7.01996 21.5C9.22996 21.5 11.02 19.71 11.02 17.5C11.02 15.29 9.22996 13.5 7.01996 13.5ZM14.5 13.5C13.6715 13.5 13 14.1716 13 15V20C13 20.8284 13.6715 21.5 14.5 21.5H19.5C20.3284 21.5 21 20.8284 21 20V15C21 14.1716 20.3284 13.5 19.5 13.5H14.5ZM7.43704 3.28674C7.24654 2.94384 6.75339 2.94384 6.56288 3.28674L2.41264 10.7572C2.22749 11.0904 2.46848 11.5 2.84972 11.5H11.1502C11.5314 11.5 11.7724 11.0904 11.5873 10.7572L7.43704 3.28674ZM19.25 3C18.19 3 17.44 3.56 17 4.17C16.56 3.56 15.81 3 14.75 3C13.19 3 12 4.28 12 5.75C12 7.57341 14.0115 8.91472 16.3219 10.9031C16.7107 11.2377 17.2893 11.2377 17.6781 10.9031C19.9884 8.91472 22 7.57341 22 5.75C22 4.28 20.81 3 19.25 3Z" fill="black"/>
</svg>
