<svg width="24" height="24" viewBox="0 0 24 24" fill="none" xmlns="http://www.w3.org/2000/svg">
<path d="M12 2C6.48 2 2 6.48 2 12C2 17.52 6.48 22 12 22C17.52 22 22 17.52 22 12C22 6.48 17.52 2 12 2ZM11 19.93C7.05 19.44 4 16.08 4 12H6.03875C6.64632 12 7.2232 12.2741 7.56761 12.7747C8.15891 13.634 9 15.0273 9 16C9 17.5 9.9 18 11 18V19.93ZM17.9 17.39C17.64 16.58 16.9 16 16 16H15V13C15 12.45 14.55 12 14 12H10C9.44772 12 9 11.5523 9 11C9 10.4477 9.44772 10 10 10H11C11.55 10 12 9.55 12 9V7H13C14.1 7 15 6.1 15 5V4.59C17.93 5.78 20 8.65 20 12C20 14.08 19.2 15.97 17.9 17.39Z" fill="black"/>
</svg>
