<svg width="24" height="24" viewBox="0 0 24 24" fill="none" xmlns="http://www.w3.org/2000/svg">
<path d="M7 2C6.44772 2 6 2.44772 6 3C6 3.55228 6.44772 4 7 4H17C17.5523 4 18 3.55228 18 3C18 2.44772 17.5523 2 17 2H7ZM12 5.58569L18.7071 12.2928C19.0976 12.6833 19.0976 13.3165 18.7071 13.707C18.3166 14.0975 17.6834 14.0975 17.2929 13.707L13 9.41412L13 21C13 21.5523 12.5523 22 12 22C11.4477 22 11 21.5523 11 21L11 9.41412L6.70711 13.707C6.31658 14.0975 5.68342 14.0975 5.29289 13.707C4.90237 13.3165 4.90237 12.6833 5.29289 12.2928L12 5.58569Z" fill="black"/>
</svg>
