<svg width="24" height="24" viewBox="0 0 24 24" fill="none" xmlns="http://www.w3.org/2000/svg">
<path d="M12 20C7.58172 20 4 16.4183 4 12C4 7.58172 7.58172 4 12 4C16.4183 4 20 7.58172 20 12C20 16.4183 16.4183 20 12 20ZM12 22C17.5228 22 22 17.5228 22 12C22 6.47715 17.5228 2 12 2C6.47715 2 2 6.47715 2 12C2 17.5228 6.47715 22 12 22ZM13.2172 14.0323C12.9768 14.5295 12.5523 15 12 15C11.4477 15 10.98 14.5436 11.1104 14.0069C11.3827 12.8854 12.1125 12.326 12.7704 11.8217C13.4202 11.3236 14 10.8792 14 10C14 8.9 13.1 8 12 8C11.2466 8 10.5871 8.42214 10.2462 9.04157C9.97995 9.52543 9.55228 10 9 10C8.44772 10 7.98716 9.54534 8.12331 9.0101C8.56356 7.27927 10.1317 6 12 6C14.21 6 16 7.79 16 10C16 11.2829 15.21 11.9733 14.4408 12.6455C13.9578 13.0676 13.4831 13.4825 13.2172 14.0323ZM12 18C12.5523 18 13 17.5523 13 17C13 16.4477 12.5523 16 12 16C11.4477 16 11 16.4477 11 17C11 17.5523 11.4477 18 12 18Z" fill="black"/>
</svg>
