<svg width="24" height="24" viewBox="0 0 24 24" fill="none" xmlns="http://www.w3.org/2000/svg">
<path d="M7.15421 8.76359L8.12335 9.0101L7.15421 8.76359C6.81283 10.1057 7.98827 11 9.00004 11C9.58031 11 10.0473 10.7473 10.3807 10.4619C10.7092 10.1807 10.9521 9.83315 11.1224 9.52369C11.296 9.20818 11.6287 9 12 9C12.5478 9 13 9.45228 13 10C13 10.1856 12.9501 10.3012 12.8475 10.4298C12.7118 10.5998 12.51 10.7614 12.1621 11.028C12.149 11.0381 12.1357 11.0483 12.1223 11.0585C11.4686 11.559 10.4947 12.3048 10.1387 13.7709C9.96033 14.5053 10.2334 15.1039 10.6826 15.4952C10.2642 15.8618 10 16.4001 10 17C10 18.1046 10.8955 19 12 19C13.1046 19 14 18.1046 14 17C14 16.4048 13.74 15.8703 13.3274 15.5039C13.708 15.1867 13.9674 14.7781 14.1175 14.4676C14.2789 14.1338 14.5831 13.8493 15.0988 13.3985C15.1184 13.3814 15.1382 13.3641 15.1584 13.3466C15.8983 12.7012 17 11.7404 17 10C17 7.23772 14.7623 5 12 5C9.66365 5 7.70452 6.60004 7.15421 8.76359ZM21 12C21 16.9706 16.9706 21 12 21C7.02944 21 3 16.9706 3 12C3 7.02944 7.02944 3 12 3C16.9706 3 21 7.02944 21 12Z" fill="black" stroke="black" stroke-width="2"/>
</svg>
