<svg width="24" height="24" viewBox="0 0 24 24" fill="none" xmlns="http://www.w3.org/2000/svg">
<path d="M4.00293 14.1808C4.00098 14.2565 4 14.3329 4 14.4101C4 14.4812 4.00098 14.5522 4.00293 14.6231C4.02936 15.5843 4.23444 16.5332 4.60863 17.4226C5.01045 18.3777 5.59941 19.2455 6.34188 19.9765C6.64954 20.2794 6.98107 20.5564 7.33287 20.8051C7.58425 20.9827 7.84599 21.1459 8.11678 21.2938C8.38156 21.4385 8.65499 21.5685 8.93586 21.683C9.19912 21.7904 9.4675 21.8836 9.73983 21.9624C9.77798 21.9735 9.8162 21.9842 9.8545 21.9947C9.98625 22.0308 10.0809 21.8744 9.99578 21.7644C9.9763 21.7392 9.95716 21.7139 9.93833 21.6884C9.69381 21.357 9.50406 20.9968 9.3691 20.6207C9.31052 20.4574 9.26226 20.2912 9.22433 20.123C9.1833 19.9412 9.15435 19.757 9.13746 19.572C9.04256 18.5322 9.32866 17.4628 9.99578 16.6008L11.6054 14.5207C11.8055 14.2622 12.1858 14.2622 12.3859 14.5207L13.9956 16.6008C14.6627 17.4628 14.9488 18.5322 14.8539 19.572C14.837 19.757 14.808 19.9412 14.767 20.123C14.7291 20.2912 14.6808 20.4574 14.6222 20.6207C14.4873 20.9968 14.2975 21.357 14.053 21.6884C14.0342 21.7139 14.015 21.7392 13.9956 21.7644C13.9104 21.8744 14.0051 22.0308 14.1368 21.9947C14.1751 21.9842 14.2134 21.9735 14.2515 21.9624C14.5238 21.8836 14.7922 21.7904 15.0555 21.683C15.3363 21.5685 15.6098 21.4385 15.8746 21.2938C16.1453 21.1459 16.4071 20.9827 16.6585 20.8051C17.0103 20.5564 17.3418 20.2794 17.6495 19.9765C18.3919 19.2455 18.9157 18.5412 19.3827 17.4226C19.8434 16.3192 19.9278 15.6101 19.9913 14.4101C20.1173 12.0296 18.8463 9.30179 17.7133 7.46949C17.6953 7.44029 17.677 7.41084 17.659 7.3821C17.382 6.93926 17.1147 6.55163 16.88 6.2376C16.7047 6.00304 16.3829 5.99353 16.182 6.18817C16.1615 6.20798 16.1423 6.2299 16.1247 6.25391C15.6806 6.85781 14.9517 7.841 14.6096 8.25678C14.446 7.33409 14.2188 6.52526 13.9576 5.82014C13.5587 4.74273 13.0807 3.90748 12.63 3.27824C12.626 3.27263 12.622 3.26703 12.618 3.26146C12.5595 3.18019 12.5015 3.10239 12.4442 3.02799C12.1826 2.68828 11.9358 2.41928 11.7261 2.21344C11.3512 1.84548 10.9619 1.96711 10.792 2.47186C10.6853 2.78881 10.544 3.18051 10.3542 3.61127C10.3484 3.62466 10.3424 3.63809 10.3364 3.65155C9.96471 4.48688 9.41133 5.46358 8.57787 6.32519C8.34566 6.56524 8.10262 6.80687 7.85475 7.05329C6.09393 8.80382 4.08981 10.7962 4.00293 14.1808ZM11.6435 5.50511C12.0364 6.28281 12.409 7.30107 12.6403 8.60592C12.7765 9.37435 13.3473 9.99336 14.1022 10.1913C14.8571 10.3893 15.6582 10.1301 16.154 9.52748C16.228 9.43764 16.3159 9.32687 16.4129 9.20237C16.6571 9.63909 16.8987 10.114 17.1177 10.6101C17.709 11.9501 18.0497 13.2541 17.9941 14.3044C17.9364 15.3965 17.8726 15.8484 17.5371 16.6521C17.3019 17.2156 17.0625 17.6199 16.7584 17.9949C16.5787 17.0616 16.185 16.1621 15.5773 15.3768L13.9676 13.2967C12.9669 12.0036 11.0245 12.0036 10.0237 13.2967L8.41407 15.3768C7.80949 16.158 7.4167 17.0524 7.23572 17.9805C6.91621 17.5719 6.65264 17.1236 6.45213 16.647C6.15336 15.9369 6 15.1769 6 14.4101C6 11.7634 7.43028 10.3242 9.23609 8.50716C9.48943 8.25225 9.75016 7.9899 10.0154 7.71573C10.7073 7.00045 11.2372 6.23072 11.6435 5.50511Z" fill="black"/>
</svg>
