<svg width="24" height="24" viewBox="0 0 24 24" fill="none" xmlns="http://www.w3.org/2000/svg">
<path d="M16.88 6.2376C16.6869 5.97917 16.3159 5.99392 16.1247 6.25391C15.6806 6.85781 14.9517 7.841 14.6096 8.25678C14.0131 4.89226 12.57 3.04164 11.7261 2.21344C11.3512 1.84548 10.9619 1.96711 10.792 2.47186C10.4762 3.4099 9.85704 5.00281 8.57787 6.32519C6.65925 8.30862 4 10.4002 4 14.4101C4 15.4439 4.20681 16.4675 4.60863 17.4226C5.01045 18.3777 5.59941 19.2455 6.34188 19.9765C7.08434 20.7075 7.96578 21.2874 8.93586 21.683C9.23599 21.8054 9.54279 21.9094 9.8545 21.9947C9.98625 22.0308 10.0809 21.8744 9.99578 21.7644C8.82771 20.255 8.82771 18.1102 9.99578 16.6008L11.6054 14.5207C11.8055 14.2622 12.1858 14.2622 12.3859 14.5207L13.9956 16.6008C15.1636 18.1102 15.1636 20.255 13.9956 21.7644C13.9104 21.8744 14.0051 22.0308 14.1368 21.9947C14.4485 21.9094 14.7553 21.8054 15.0555 21.683C16.0256 21.2874 16.907 20.7075 17.6495 19.9765C18.3919 19.2455 18.9157 18.5412 19.3827 17.4226C19.8434 16.3192 19.9278 15.6101 19.9913 14.4101C20.1502 11.4068 18.0858 7.85086 16.88 6.2376Z" fill="black"/>
</svg>
