<svg width="24" height="24" viewBox="0 0 24 24" fill="none" xmlns="http://www.w3.org/2000/svg">
<path d="M7.5 2C6.67157 2 6 2.67157 6 3.5V6.35021C6 7.41281 6.4228 8.43175 7.17512 9.18218L10 12L7.16804 14.839C6.42006 15.5889 6 16.6048 6 17.6639V20.5C6 21.3284 6.67157 22 7.5 22H16.5C17.3284 22 18 21.3284 18 20.5V17.6569C18 16.596 17.5786 15.5786 16.8284 14.8284L14 12L16.8284 9.17157C17.5786 8.42143 18 7.40401 18 6.34315V3.5C18 2.67157 17.3284 2 16.5 2H7.5ZM15.0627 15.5627C15.6629 16.1629 16 16.9768 16 17.8255V20H8V17.8255C8 16.9768 8.33714 16.1629 8.93726 15.5627L12 12.5L15.0627 15.5627ZM12 11.5L8.93726 8.43726C8.33714 7.83714 8 7.02321 8 6.17452V4H16V6.17452C16 7.02321 15.6629 7.83714 15.0627 8.43726L12 11.5Z" fill="black"/>
</svg>
