<svg width="24" height="24" viewBox="0 0 24 24" fill="none" xmlns="http://www.w3.org/2000/svg">
<path d="M13.7385 12.3779C13.9406 12.1172 14.3354 12.1202 14.5335 12.384L17.399 16.1997C17.6465 16.5293 17.4114 17 16.9992 17H7.02186C6.60586 17 6.37179 16.5216 6.62707 16.1932L8.61715 13.6326C8.81356 13.3799 9.19352 13.3742 9.39739 13.6209L10.7421 15.2484C10.9461 15.4953 11.3265 15.4894 11.5227 15.2363L13.7385 12.3779Z" fill="black"/>
<path d="M3 4.5C3 3.67157 3.67157 3 4.5 3H19.5C20.3284 3 21 3.67157 21 4.5V19.5C21 20.3284 20.3284 21 19.5 21H4.5C3.67157 21 3 20.3284 3 19.5V4.5ZM19 19V5H5V19H19Z" fill="black"/>
</svg>
