<svg width="24" height="24" viewBox="0 0 24 24" fill="none" xmlns="http://www.w3.org/2000/svg">
<path d="M4.5 3C3.67157 3 3 3.67157 3 4.5V19.5C3 20.3284 3.67157 21 4.5 21H19.5C20.3284 21 21 20.3284 21 19.5V4.5C21 3.67157 20.3284 3 19.5 3H4.5ZM8.89743 13.9785L10.6021 16.031C10.8064 16.2769 11.1858 16.2706 11.3818 16.0181L14.0982 12.5177C14.3005 12.2571 14.6953 12.2604 14.8932 12.5243L18.4 17.2C18.6472 17.5296 18.412 18 18 18H6.02232C5.60625 18 5.3722 17.5215 5.62764 17.193L8.11812 13.991C8.31425 13.7388 8.69331 13.7327 8.89743 13.9785Z" fill="black"/>
</svg>
