<svg width="24" height="24" viewBox="0 0 24 24" fill="none" xmlns="http://www.w3.org/2000/svg">
<path d="M15 7C15 5.34315 13.6569 4 12 4C10.3431 4 9 5.34315 9 7V9H15V7ZM7 9V7C7 4.23858 9.23858 2 12 2C14.7614 2 17 4.23858 17 7V9H18.5C19.3284 9 20 9.67157 20 10.5V20.5C20 21.3284 19.3284 22 18.5 22H5.5C4.67157 22 4 21.3284 4 20.5V10.5C4 9.67157 4.67157 9 5.5 9H7ZM12 13C11.4477 13 11 13.4477 11 14V17C11 17.5523 11.4477 18 12 18C12.5523 18 13 17.5523 13 17V14C13 13.4477 12.5523 13 12 13Z" fill="black"/>
</svg>
