<svg width="24" height="24" viewBox="0 0 24 24" fill="none" xmlns="http://www.w3.org/2000/svg">
<path d="M12 13C12.5523 13 13 13.4477 13 14V17C13 17.5523 12.5523 18 12 18C11.4477 18 11 17.5523 11 17V14C11 13.4477 11.4477 13 12 13Z" fill="black"/>
<path d="M7 9H5.5C4.67157 9 4 9.67157 4 10.5V20.5C4 21.3284 4.67157 22 5.5 22H18.5C19.3284 22 20 21.3284 20 20.5V10.5C20 9.67157 19.3284 9 18.5 9H17V7C17 4.23858 14.7614 2 12 2C9.23858 2 7 4.23858 7 7V9ZM15 7V9H9V7C9 5.34315 10.3431 4 12 4C13.6569 4 15 5.34315 15 7ZM6 11H18V20H6V11Z" fill="black"/>
</svg>
