<svg width="24" height="24" viewBox="0 0 24 24" fill="none" xmlns="http://www.w3.org/2000/svg">
<path d="M7.23652 3.20444C7.2215 3.21258 7.20649 3.22076 7.1915 3.22899C6.37973 3.67451 5.6167 4.24115 4.92893 4.92892C1.02369 8.83416 1.02369 15.1658 4.92893 19.0711C8.83418 22.9763 15.1658 22.9763 19.0711 19.0711C19.7588 18.3833 20.3255 17.6203 20.771 16.8085C20.7792 16.7935 20.7874 16.7785 20.7955 16.7635C20.8932 16.5832 20.985 16.4007 21.0708 16.216C21.1932 15.9526 21.3035 15.6849 21.4017 15.4139C21.5327 15.0524 21.1955 14.7094 20.8169 14.7762C20.5313 14.8266 20.244 14.8645 19.9558 14.8899C19.7928 14.9043 19.6296 14.9147 19.4662 14.9212C19.4608 14.9214 19.4555 14.9216 19.4501 14.9218C16.766 15.0229 14.049 14.049 12 12C9.95097 9.95096 8.97704 7.23394 9.07821 4.54991C9.07841 4.54453 9.07862 4.53916 9.07883 4.53378C9.08525 4.37041 9.09566 4.20716 9.11004 4.04419C9.13549 3.75598 9.1734 3.46867 9.22376 3.18312C9.29056 2.80444 8.9476 2.46724 8.58608 2.59825C8.31505 2.69646 8.04741 2.80677 7.78401 2.92917C7.59933 3.01498 7.41674 3.10674 7.23652 3.20444ZM7.09462 5.67906C7.2701 8.49354 8.43293 11.2613 10.5858 13.4142C12.7386 15.5671 15.5064 16.7299 18.3209 16.9054C18.1181 17.1658 17.8968 17.4169 17.6569 17.6568C14.5327 20.781 9.46734 20.781 6.34315 17.6568C3.21895 14.5326 3.21895 9.46733 6.34315 6.34313C6.58311 6.10316 6.83417 5.88184 7.09462 5.67906Z" fill="black"/>
</svg>
