<svg width="24" height="24" viewBox="0 0 24 24" fill="none" xmlns="http://www.w3.org/2000/svg">
<path d="M14.4 4.00004H9.6C9.35279 4.00004 9.21167 3.71781 9.36 3.52004L11.6 0.533374C11.8 0.266707 12.2 0.266707 12.4 0.533374L14.64 3.52004C14.7883 3.71781 14.6472 4.00004 14.4 4.00004ZM6 7.50004C6 6.67161 6.67157 6.00004 7.5 6.00004H16.5C17.3284 6.00004 18 6.67161 18 7.50004V16.5C18 17.3285 17.3284 18 16.5 18H7.5C6.67157 18 6 17.3285 6 16.5V7.50004ZM9.6 20H14.4C14.6472 20 14.7883 20.2823 14.64 20.48L12.4 23.4667C12.2 23.7334 11.8 23.7334 11.6 23.4667L9.36 20.48C9.21167 20.2823 9.35279 20 9.6 20Z" fill="black"/>
</svg>
