<svg width="24" height="24" viewBox="0 0 24 24" fill="none" xmlns="http://www.w3.org/2000/svg">
<path d="M6.00004 7.5C6.00004 6.67157 6.67161 6 7.50004 6H16.5C17.3285 6 18 6.67157 18 7.5V16.5C18 17.3284 17.3285 18 16.5 18L7.50004 18C6.67161 18 6.00004 17.3284 6.00004 16.5L6.00004 7.5ZM4.00004 9.6L4.00004 14.4C4.00004 14.6472 3.71781 14.7883 3.52004 14.64L0.533374 12.4C0.266707 12.2 0.266707 11.8 0.533374 11.6L3.52004 9.36C3.71781 9.21167 4.00004 9.35279 4.00004 9.6ZM20 14.4V9.6C20 9.35279 20.2823 9.21167 20.48 9.36L23.4667 11.6C23.7334 11.8 23.7334 12.2 23.4667 12.4L20.48 14.64C20.2823 14.7883 20 14.6472 20 14.4Z" fill="black"/>
</svg>
