<svg width="24" height="24" viewBox="0 0 24 24" fill="none" xmlns="http://www.w3.org/2000/svg">
<path d="M12 9C13.1046 9 14 8.10457 14 7C14 5.89543 13.1046 5 12 5C10.8955 5 10 5.89543 10 7C10 8.10457 10.8955 9 12 9ZM12 11C9.79088 11 8.00002 9.20914 8.00002 7C8.00002 4.79086 9.79088 3 12 3C14.2092 3 16 4.79086 16 7C16 9.20914 14.2092 11 12 11Z" fill="black"/>
<path d="M18.5975 19C18.5674 18.9274 18.5356 18.8551 18.5021 18.7833C18.1702 18.0711 17.6761 17.4076 17.0353 16.838C16.3939 16.2679 15.6202 15.805 14.7531 15.4858C13.886 15.1665 12.9499 15 12 15C11.0501 15 10.114 15.1665 9.2469 15.4858C8.37986 15.805 7.60613 16.2679 6.96479 16.838C6.3239 17.4076 5.82983 18.0711 5.49794 18.7833C5.46446 18.8551 5.43267 18.9274 5.40258 19H18.5975ZM20.8428 19.511C21.0154 20.3213 20.3284 21 19.5 21H4.50002C3.6716 21 2.98461 20.3213 3.15728 19.511C3.27184 18.9735 3.44842 18.4465 3.68511 17.9385C4.1374 16.9679 4.80034 16.086 5.63606 15.3431C6.47179 14.6003 7.46394 14.011 8.55587 13.609C9.6478 13.2069 10.8181 13 12 13C13.1819 13 14.3522 13.2069 15.4442 13.609C16.5361 14.011 17.5283 14.6003 18.364 15.3431C19.1997 16.086 19.8626 16.9679 20.3149 17.9385C20.5516 18.4465 20.7282 18.9735 20.8428 19.511Z" fill="black"/>
</svg>
