<svg width="24" height="24" viewBox="0 0 24 24" fill="none" xmlns="http://www.w3.org/2000/svg">
<path d="M12 11C14.2092 11 16 9.20914 16 7C16 4.79086 14.2092 3 12 3C9.79088 3 8.00002 4.79086 8.00002 7C8.00002 9.20914 9.79088 11 12 11Z" fill="black"/>
<path d="M20.8428 19.511C21.0154 20.3213 20.3284 21 19.5 21H4.50002C3.6716 21 2.98461 20.3213 3.15728 19.511C3.27184 18.9735 3.44842 18.4465 3.68511 17.9385C4.1374 16.9679 4.80033 16.086 5.63606 15.3431C6.47179 14.6003 7.46394 14.011 8.55587 13.609C9.6478 13.2069 10.8181 13 12 13C13.1819 13 14.3522 13.2069 15.4442 13.609C16.5361 14.011 17.5283 14.6003 18.364 15.3431C19.1997 16.086 19.8626 16.9679 20.3149 17.9385C20.5516 18.4465 20.7282 18.9735 20.8428 19.511Z" fill="black"/>
</svg>
