<svg width="24" height="24" viewBox="0 0 24 24" fill="none" xmlns="http://www.w3.org/2000/svg">
<path d="M17.9295 12.9976C17.4453 16.391 14.5273 19 11 19C7.47268 19 4.55471 16.391 4.07054 12.9976C4.04724 12.9992 4.02372 13 4 13H2C1.44772 13 1 12.5523 1 12C1 11.4477 1.44772 11 2 11H4C4.02372 11 4.04724 11.0008 4.07054 11.0024C4.55471 7.60896 7.47268 5 11 5C14.5273 5 17.4453 7.60896 17.9295 11.0024C17.9528 11.0008 17.9763 11 18 11H22C22.5523 11 23 11.4477 23 12C23 12.5523 22.5523 13 22 13H18C17.9763 13 17.9528 12.9992 17.9295 12.9976ZM11 17C13.7614 17 16 14.7614 16 12C16 9.23858 13.7614 7 11 7C8.23858 7 6 9.23858 6 12C6 14.7614 8.23858 17 11 17Z" fill="black"/>
</svg>
