<svg width="24" height="24" viewBox="0 0 24 24" fill="none" xmlns="http://www.w3.org/2000/svg">
<path d="M10 16C13.3137 16 16 13.3137 16 10C16 6.68629 13.3137 4 10 4C6.68629 4 4 6.68629 4 10C4 13.3137 6.68629 16 10 16ZM18 10C18 11.8487 17.3729 13.551 16.3199 14.9056L17.3532 15.939C17.9108 15.6726 18.5988 15.7704 19.0607 16.2322L22.7678 19.9393C23.3536 20.5251 23.3536 21.4748 22.7678 22.0606L22.0607 22.7677C21.4749 23.3535 20.5251 23.3535 19.9394 22.7677L16.2322 19.0606C15.7704 18.5988 15.6727 17.9108 15.939 17.3532L14.9056 16.3199C13.551 17.3729 11.8487 18 10 18C5.58172 18 2 14.4183 2 10C2 5.58172 5.58172 2 10 2C14.4183 2 18 5.58172 18 10Z" fill="black"/>
</svg>
