<svg width="24" height="24" viewBox="0 0 24 24" fill="none" xmlns="http://www.w3.org/2000/svg">
<path d="M16.2435 12C16.2435 14.2091 14.3981 16 12.1217 16C9.84536 16 8 14.2091 8 12C8 9.79086 9.84536 8 12.1217 8C14.3981 8 16.2435 9.79086 16.2435 12ZM14.2435 12C14.2435 10.9515 13.3505 10 12.1217 10C10.893 10 10 10.9515 10 12C10 13.0485 10.893 14 12.1217 14C13.3505 14 14.2435 13.0485 14.2435 12Z" fill="black"/>
<path d="M21.7353 11.0064C22.0877 11.6219 22.0877 12.3781 21.7353 12.9936L17.7281 19.9936C17.3718 20.616 16.7095 21 15.9924 21H8.00724C7.29008 21 6.62782 20.616 6.27153 19.9936L2.26429 12.9936C1.9119 12.3781 1.9119 11.6219 2.26429 11.0064L6.27153 4.00637C6.62782 3.38398 7.29008 3 8.00724 3H15.9924C16.7095 3 17.3718 3.38398 17.7281 4.00637L21.7353 11.0064ZM19.9996 12L15.9924 5L8.00724 5L4 12L8.00724 19L15.9924 19L19.9996 12Z" fill="black"/>
</svg>
