<svg width="24" height="24" viewBox="0 0 24 24" fill="none" xmlns="http://www.w3.org/2000/svg">
<path d="M17.7279 19.9936L21.7352 12.9936C22.0876 12.3781 22.0876 11.6219 21.7352 11.0064L17.7279 4.00637C17.3717 3.38398 16.7094 3 15.9922 3H8.00712C7.28996 3 6.6277 3.38398 6.27141 4.00637L2.26417 11.0064C1.91178 11.6219 1.91178 12.3781 2.26416 12.9936L6.2714 19.9936C6.6277 20.616 7.28996 21 8.00712 21H15.9922C16.7094 21 17.3717 20.616 17.7279 19.9936ZM11.9999 16C9.79079 16 7.99993 14.2091 7.99993 12C7.99993 9.79086 9.79079 8 11.9999 8C14.2091 8 15.9999 9.79086 15.9999 12C15.9999 14.2091 14.2091 16 11.9999 16Z" fill="black"/>
</svg>
