<svg width="24" height="24" viewBox="0 0 24 24" fill="none" xmlns="http://www.w3.org/2000/svg">
<path fill-rule="evenodd" clip-rule="evenodd" d="M12 1.58582L12.7071 2.29292L15.7071 5.29292C16.0976 5.68345 16.0976 6.31661 15.7071 6.70714C15.3166 7.09766 14.6834 7.09766 14.2929 6.70714L13 5.41424V17C13 17.5523 12.5523 18 12 18C11.4477 18 11 17.5523 11 17V5.41424L9.70711 6.70714C9.31658 7.09766 8.68342 7.09766 8.29289 6.70714C7.90237 6.31661 7.90237 5.68345 8.29289 5.29292L11.2929 2.29292L12 1.58582ZM5 9C3.34272 9 2 10.3427 2 12V19C2 20.6573 3.34272 22 5 22H19C20.6573 22 22 20.6573 22 19V12C22 10.3427 20.6573 9 19 9H16C15.4477 9 15 9.44772 15 10C15 10.5523 15.4477 11 16 11H19C19.5527 11 20 11.4473 20 12V19C20 19.5527 19.5527 20 19 20H5C4.44728 20 4 19.5527 4 19V12C4 11.4473 4.44728 11 5 11H8C8.55228 11 9 10.5523 9 10C9 9.44772 8.55228 9 8 9H5Z" fill="black"/>
</svg>
