<svg width="24" height="24" viewBox="0 0 24 24" fill="none" xmlns="http://www.w3.org/2000/svg">
<path d="M12 1.5C6.20312 1.5 1.5 6.2005 1.5 12C1.5 16.2989 4.08562 19.9931 7.786 21.6171C7.75625 20.8848 7.78162 20.0036 7.968 19.2056L9.319 13.4849C9.319 13.4849 8.98387 12.8146 8.98387 11.8224C8.98387 10.2666 9.88688 9.10463 11.0095 9.10463C11.9633 9.10463 12.4253 9.82212 12.4253 10.6823C12.4253 11.6412 11.8127 13.0771 11.4978 14.4071C11.2353 15.5219 12.056 16.4301 13.155 16.4301C15.1447 16.4301 16.4844 13.8751 16.4844 10.8476C16.4844 8.54638 14.9348 6.82438 12.1155 6.82438C8.9305 6.82438 6.94688 9.19912 6.94688 11.8512C6.94688 12.7674 7.2155 13.4123 7.63812 13.911C7.83325 14.142 7.8595 14.233 7.78862 14.4973C7.73962 14.6889 7.62325 15.1552 7.57513 15.3399C7.50513 15.605 7.28988 15.7013 7.05013 15.6024C5.58188 15.0039 4.89937 13.3974 4.89937 11.5905C4.89937 8.6085 7.415 5.03062 12.4034 5.03062C16.4126 5.03062 19.0516 7.933 19.0516 11.0463C19.0516 15.1657 16.7617 18.2422 13.3851 18.2422C12.2529 18.2422 11.1854 17.6298 10.8205 16.935C10.8205 16.935 10.2098 19.3535 10.082 19.8208C9.85975 20.6292 9.424 21.4395 9.025 22.0695C9.97 22.3477 10.9675 22.5 12 22.5C17.7995 22.5 22.5 17.7995 22.5 12C22.5 6.2005 17.7995 1.5 12 1.5Z" fill="black"/>
</svg>
