<svg width="24" height="24" viewBox="0 0 24 24" fill="none" xmlns="http://www.w3.org/2000/svg">
<mask id="mask0_19_2288" style="mask-type:alpha" maskUnits="userSpaceOnUse" x="1" y="1" width="22" height="22">
<path fill-rule="evenodd" clip-rule="evenodd" d="M22.0636 10.0364H11.9999V14.2091H17.7927C17.2527 16.86 14.9945 18.3818 11.9999 18.3818C8.4654 18.3818 5.61813 15.5345 5.61813 12C5.61813 8.46545 8.4654 5.61818 11.9999 5.61818C13.5218 5.61818 14.8963 6.15818 15.9763 7.04182L19.1181 3.9C17.2036 2.23091 14.749 1.2 11.9999 1.2C6.01086 1.2 1.19995 6.01091 1.19995 12C1.19995 17.9891 6.01086 22.8 11.9999 22.8C17.3999 22.8 22.309 18.8727 22.309 12C22.309 11.3618 22.2109 10.6745 22.0636 10.0364Z" fill="white"/>
</mask>
<g mask="url(#mask0_19_2288)">
<path fill-rule="evenodd" clip-rule="evenodd" d="M0.218079 18.3818V5.61818L8.56353 12L0.218079 18.3818Z" fill="#FBBC05"/>
</g>
<mask id="mask1_19_2288" style="mask-type:alpha" maskUnits="userSpaceOnUse" x="1" y="1" width="22" height="22">
<path fill-rule="evenodd" clip-rule="evenodd" d="M22.0636 10.0364H11.9999V14.2091H17.7927C17.2527 16.86 14.9945 18.3818 11.9999 18.3818C8.4654 18.3818 5.61813 15.5345 5.61813 12C5.61813 8.46545 8.4654 5.61818 11.9999 5.61818C13.5218 5.61818 14.8963 6.15818 15.9763 7.04182L19.1181 3.9C17.2036 2.23091 14.749 1.2 11.9999 1.2C6.01086 1.2 1.19995 6.01091 1.19995 12C1.19995 17.9891 6.01086 22.8 11.9999 22.8C17.3999 22.8 22.309 18.8727 22.309 12C22.309 11.3618 22.2109 10.6745 22.0636 10.0364Z" fill="white"/>
</mask>
<g mask="url(#mask1_19_2288)">
<path fill-rule="evenodd" clip-rule="evenodd" d="M0.218079 5.61817L8.56353 12L11.9999 9.00544L23.7817 7.0909V0.21817H0.218079V5.61817Z" fill="#EA4335"/>
</g>
<mask id="mask2_19_2288" style="mask-type:alpha" maskUnits="userSpaceOnUse" x="1" y="1" width="22" height="22">
<path fill-rule="evenodd" clip-rule="evenodd" d="M22.0636 10.0364H11.9999V14.2091H17.7927C17.2527 16.86 14.9945 18.3818 11.9999 18.3818C8.4654 18.3818 5.61813 15.5345 5.61813 12C5.61813 8.46545 8.4654 5.61818 11.9999 5.61818C13.5218 5.61818 14.8963 6.15818 15.9763 7.04182L19.1181 3.9C17.2036 2.23091 14.749 1.2 11.9999 1.2C6.01086 1.2 1.19995 6.01091 1.19995 12C1.19995 17.9891 6.01086 22.8 11.9999 22.8C17.3999 22.8 22.309 18.8727 22.309 12C22.309 11.3618 22.2109 10.6745 22.0636 10.0364Z" fill="white"/>
</mask>
<g mask="url(#mask2_19_2288)">
<path fill-rule="evenodd" clip-rule="evenodd" d="M0.218079 18.3818L14.9454 7.0909L18.8235 7.58181L23.7817 0.21817V23.7818H0.218079V18.3818Z" fill="#34A853"/>
</g>
<mask id="mask3_19_2288" style="mask-type:alpha" maskUnits="userSpaceOnUse" x="1" y="1" width="22" height="22">
<path fill-rule="evenodd" clip-rule="evenodd" d="M22.0636 10.0364H11.9999V14.2091H17.7927C17.2527 16.86 14.9945 18.3818 11.9999 18.3818C8.4654 18.3818 5.61813 15.5345 5.61813 12C5.61813 8.46545 8.4654 5.61818 11.9999 5.61818C13.5218 5.61818 14.8963 6.15818 15.9763 7.04182L19.1181 3.9C17.2036 2.23091 14.749 1.2 11.9999 1.2C6.01086 1.2 1.19995 6.01091 1.19995 12C1.19995 17.9891 6.01086 22.8 11.9999 22.8C17.3999 22.8 22.309 18.8727 22.309 12C22.309 11.3618 22.2109 10.6745 22.0636 10.0364Z" fill="white"/>
</mask>
<g mask="url(#mask3_19_2288)">
<path fill-rule="evenodd" clip-rule="evenodd" d="M23.7817 23.7818L8.56355 12L6.59991 10.5273L23.7817 5.61818V23.7818Z" fill="#4285F4"/>
</g>
</svg>
