<svg width="24" height="24" viewBox="0 0 24 24" fill="none" xmlns="http://www.w3.org/2000/svg">
<path d="M12.0013 0.999969C9.01382 0.999969 8.6389 1.01303 7.46556 1.06643C6.29451 1.12005 5.49516 1.30545 4.79574 1.57748C4.07225 1.85844 3.45854 2.23427 2.84712 2.84593C2.23524 3.45735 1.8594 4.07106 1.57752 4.79432C1.30481 5.49397 1.11918 6.29354 1.06647 7.46414C1.01399 8.63748 1.00024 9.01263 1.00024 12.0001C1.00024 14.9875 1.01354 15.3613 1.0667 16.5346C1.12056 17.7057 1.30596 18.505 1.57775 19.2045C1.85894 19.9279 2.23478 20.5417 2.84643 21.1531C3.45762 21.765 4.07134 22.1417 4.79437 22.4227C5.49425 22.6947 6.29382 22.8801 7.46464 22.9337C8.63799 22.9871 9.01268 23.0002 11.9999 23.0002C14.9876 23.0002 15.3613 22.9871 16.5347 22.9337C17.7057 22.8801 18.506 22.6947 19.2059 22.4227C19.9291 22.1417 20.5419 21.765 21.1531 21.1531C21.765 20.5417 22.1409 19.9279 22.4227 19.2047C22.6931 18.505 22.8788 17.7055 22.9338 16.5349C22.9865 15.3615 23.0002 14.9875 23.0002 12.0001C23.0002 9.01263 22.9865 8.63771 22.9338 7.46437C22.8788 6.29331 22.6931 5.49397 22.4227 4.79455C22.1409 4.07106 21.765 3.45735 21.1531 2.84593C20.5413 2.23404 19.9294 1.85821 19.2052 1.57748C18.5039 1.30545 17.7041 1.12005 16.5331 1.06643C15.3597 1.01303 14.9862 0.999969 11.9978 0.999969H12.0013ZM11.6347 2.9821L12.0013 2.98221C14.9383 2.98221 15.2864 2.99275 16.4463 3.04546C17.5188 3.0945 18.1009 3.27371 18.4886 3.42428C19.002 3.62366 19.3679 3.86199 19.7527 4.247C20.1377 4.632 20.3761 4.99867 20.5759 5.51201C20.7264 5.8993 20.9059 6.48139 20.9547 7.5539C21.0074 8.7135 21.0189 9.06184 21.0189 11.9975C21.0189 14.9331 21.0074 15.2815 20.9547 16.4411C20.9057 17.5136 20.7264 18.0957 20.5759 18.483C20.3765 18.9963 20.1377 19.3618 19.7527 19.7466C19.3677 20.1316 19.0022 20.3699 18.4886 20.5693C18.1013 20.7206 17.5188 20.8993 16.4463 20.9484C15.2867 21.0011 14.9383 21.0125 12.0013 21.0125C9.06404 21.0125 8.71594 21.0011 7.55634 20.9484C6.48383 20.8989 5.90174 20.7197 5.51376 20.5691C5.00042 20.3697 4.63375 20.1314 4.24874 19.7464C3.86374 19.3614 3.62541 18.9956 3.42557 18.4821C3.27501 18.0948 3.09557 17.5127 3.04675 16.4402C2.99404 15.2806 2.9835 14.9322 2.9835 11.9947C2.9835 9.05725 2.99404 8.71075 3.04675 7.55115C3.0958 6.47864 3.27501 5.89655 3.42557 5.5088C3.62495 4.99546 3.86374 4.62879 4.24874 4.24379C4.63375 3.85878 5.00042 3.62045 5.51376 3.42061C5.90151 3.26936 6.48383 3.09061 7.55634 3.04134C8.5711 2.9955 8.96435 2.98175 11.0145 2.97946V2.98221C11.206 2.98191 11.4124 2.982 11.6347 2.9821ZM16.553 6.12823C16.553 5.39924 17.1442 4.80867 17.873 4.80867C18.6017 4.80867 19.193 5.39947 19.193 6.12823C19.193 6.85699 18.6017 7.44824 17.873 7.44824C17.1442 7.44824 16.553 6.85699 16.553 6.12823ZM12.0014 6.35101C8.88185 6.35113 6.35264 8.88042 6.35264 12C6.35264 15.1197 8.88198 17.6479 12.0017 17.6479C15.1213 17.6479 17.6498 15.1197 17.6498 12C17.6498 8.88035 15.1211 6.35101 12.0014 6.35101ZM15.6682 12.0001C15.6682 14.025 14.0264 15.6668 12.0015 15.6668C9.97632 15.6668 8.33479 14.025 8.33479 12.0001C8.33479 9.9749 9.97632 8.33336 12.0015 8.33336C14.0264 8.33336 15.6682 9.9749 15.6682 12.0001Z" fill="black"/>
</svg>
