<svg width="24" height="24" viewBox="0 0 24 24" fill="none" xmlns="http://www.w3.org/2000/svg">
<path d="M6.13609 18.3784V20.5059C6.13609 21.1326 6.4426 21.4673 6.99909 21.4673C7.55232 21.4673 7.85702 21.1417 7.85702 20.5318V18.3784H8.62281V20.5007C8.62281 21.5756 8.02728 22.192 6.98882 22.192C5.96016 22.192 5.3703 21.5869 5.3703 20.5318V18.3784H6.13609ZM11.3434 18.3784L11.3582 18.4117L13.008 22.1258H12.2054L11.8639 21.3265H10.1364L10.1134 21.3807L9.7901 22.1277H9.00837L10.6739 18.3784H11.3434ZM21.7881 18.3785V19.0617H19.766V19.8295H21.1591V20.5127H19.766V21.4414H21.8607V22.1246H19.0105V18.3785H21.7881ZM23.4963 18.3784V22.1246H22.7409V18.3784H23.4963ZM15.851 18.3785L16.708 20.9306L17.54 18.3888H18.3342L17.0257 22.1205H16.3862L15.5281 19.6532L14.6698 22.1205H14.0355L12.7219 18.3888H13.5371L14.369 20.9306L15.226 18.3785H15.851ZM1.76888 18.3124V19.8238H3.50481V18.3125H4.27349V22.0708H3.50481V20.5386H1.76888V22.0708H1V18.3124H1.76888ZM10.9983 19.3293L10.4568 20.5713H10.4579L10.4213 20.6575H11.5791L11.5425 20.5713H11.5443L10.9983 19.3293Z" fill="#221816"/>
<path d="M14.2678 13.8503L20.423 14.0624C19.0432 16.4122 17.4541 15.8746 17.4541 15.8746C16.594 15.635 14.81 14.3989 14.2215 13.9812C14.1857 13.9534 14.1984 13.8985 14.1984 13.8985C14.2136 13.8588 14.2677 13.8519 14.2677 13.8519L14.2678 13.8503ZM10.1966 13.8461C10.1966 13.8477 10.2605 13.8477 10.2758 13.9027C10.2758 13.9027 10.2922 13.9363 10.246 13.9786L10.2475 13.9798C9.6442 14.4068 7.8158 15.6699 7.00851 15.8695C5.83881 16.1501 4.71588 15.236 4.04943 14.0585L10.1966 13.8461ZM2.41248 8.69081C2.41248 8.69081 7.64584 11.4603 10.346 13.2642C10.3455 13.2656 10.3985 13.3084 10.3685 13.3558C10.3685 13.3558 10.346 13.3963 10.3058 13.3971C9.35048 13.4013 5.78641 13.4165 5.69407 13.4C5.69407 13.4 5.10648 13.3834 4.51823 13.1445C4.51823 13.1445 3.24485 12.7215 2.57781 11.325C2.57781 11.325 1.93698 10.1496 2.41248 8.69081ZM22.0599 8.67806C22.5266 10.074 21.9227 11.2685 21.9227 11.2685C21.2471 12.7342 19.9447 13.1445 19.9447 13.1445C19.359 13.3666 18.886 13.3853 18.886 13.3853C18.7934 13.4019 15.1312 13.3985 14.1643 13.3963C14.1261 13.3957 14.1011 13.3503 14.1011 13.3503C14.084 13.2934 14.1327 13.2619 14.1327 13.2619C16.8338 11.4555 22.0599 8.67806 22.0599 8.67806ZM5.29923 3.6294C5.29923 3.6294 8.51397 7.48467 10.8646 12.5703C10.8829 12.6164 10.8472 12.6439 10.8472 12.6439C10.8208 12.6765 10.7768 12.6619 10.765 12.6575C9.90651 12.2358 6.21353 10.3769 4.68822 8.90502C4.68822 8.90502 3.74156 8.1672 3.67498 6.92089C3.55061 5.27432 5.29923 3.6294 5.29923 3.6294ZM19.1746 3.6294C19.1746 3.6294 20.9072 5.20735 20.7959 6.91254C20.7483 8.07281 19.8865 8.82016 19.7926 8.89824L19.7843 8.90502C18.2665 10.3699 14.6017 12.2164 13.7214 12.65C13.6807 12.6753 13.638 12.6439 13.638 12.6439C13.5938 12.6054 13.6211 12.5468 13.6211 12.5468C15.9689 7.47274 19.1746 3.6294 19.1746 3.6294ZM13.7007 1C14.1987 1.06968 14.6686 1.18691 14.6686 1.18691C16.2986 1.57995 16.7004 3.06574 16.7004 3.06574C16.9838 3.84527 16.6903 4.99709 16.6903 4.99709C16.1498 7.37539 13.4918 11.2776 12.9021 12.1228C12.9016 12.1224 12.8713 12.1785 12.8124 12.1556C12.8124 12.1556 12.7718 12.1441 12.7654 12.0888C11.8784 3.32313 13.7007 1 13.7007 1ZM10.7768 1C10.7768 1 12.5894 3.32187 11.705 12.0825C11.7042 12.0817 11.7084 12.1403 11.6467 12.1576C11.6467 12.1576 11.6143 12.1725 11.5739 12.1319C10.9995 11.3082 8.32611 7.38487 7.78242 4.99709C7.78242 4.99709 7.47759 3.9865 7.77488 3.06574C7.77488 3.06574 8.15958 1.60197 9.78717 1.18598C9.78717 1.18598 10.5093 1.02294 10.7768 1Z" fill="#D32C26"/>
</svg>
