<svg width="24" height="24" viewBox="0 0 24 24" fill="none" xmlns="http://www.w3.org/2000/svg">
<g clip-path="url(#clip0_19_2286)">
<path d="M19.365 9.86301C19.5279 9.86949 19.6819 9.93876 19.7949 10.0563C19.9078 10.1738 19.9709 10.3305 19.9709 10.4935C19.9709 10.6565 19.9078 10.8132 19.7949 10.9307C19.6819 11.0483 19.5279 11.1175 19.365 11.124H17.61V12.249H19.365C19.4498 12.2456 19.5344 12.2594 19.6137 12.2895C19.693 12.3196 19.7654 12.3655 19.8266 12.4242C19.8878 12.483 19.9365 12.5536 19.9697 12.6316C20.003 12.7097 20.0201 12.7937 20.0201 12.8785C20.0201 12.9634 20.003 13.0473 19.9697 13.1254C19.9365 13.2034 19.8878 13.274 19.8266 13.3328C19.7654 13.3916 19.693 13.4374 19.6137 13.4675C19.5344 13.4976 19.4498 13.5114 19.365 13.508H16.979C16.8127 13.507 16.6535 13.4403 16.5361 13.3225C16.4187 13.2047 16.3525 13.0453 16.352 12.879V8.10801C16.352 7.76301 16.634 7.47801 16.982 7.47801H19.368C19.5351 7.4784 19.6952 7.54516 19.813 7.66359C19.9309 7.78202 19.9969 7.94242 19.9965 8.10951C19.9961 8.27659 19.9293 8.43668 19.8109 8.55454C19.6925 8.67241 19.5321 8.7384 19.365 8.73801H17.61V9.86301H19.365ZM15.51 12.879C15.5092 13.0457 15.4423 13.2054 15.3241 13.3229C15.2058 13.4404 15.0457 13.5063 14.879 13.506C14.7802 13.5081 14.6823 13.4866 14.5936 13.4431C14.5048 13.3996 14.4278 13.3354 14.369 13.256L11.926 9.93901V12.879C11.915 13.0382 11.844 13.1873 11.7273 13.2961C11.6107 13.405 11.4571 13.4656 11.2975 13.4656C11.1379 13.4656 10.9843 13.405 10.8677 13.2961C10.751 13.1873 10.68 13.0382 10.669 12.879V8.10801C10.6687 7.94206 10.7343 7.78278 10.8512 7.66506C10.9682 7.54735 11.1271 7.4808 11.293 7.48001C11.488 7.48001 11.668 7.58401 11.788 7.73401L14.25 11.064V8.10801C14.25 7.76301 14.532 7.47801 14.88 7.47801C15.225 7.47801 15.51 7.76301 15.51 8.10801V12.879ZM9.769 12.879C9.76821 13.0459 9.70141 13.2058 9.58319 13.3236C9.46497 13.4415 9.30493 13.5077 9.138 13.508C8.97169 13.507 8.81252 13.4403 8.6951 13.3225C8.57769 13.2047 8.51152 13.0453 8.511 12.879V8.10801C8.511 7.76301 8.793 7.47801 9.141 7.47801C9.487 7.47801 9.769 7.76301 9.769 8.10801V12.879ZM7.303 13.508H4.917C4.75041 13.507 4.59092 13.4404 4.47303 13.3227C4.35514 13.205 4.28831 13.0456 4.287 12.879V8.10801C4.287 7.76301 4.572 7.47801 4.917 7.47801C5.265 7.47801 5.547 7.76301 5.547 8.10801V12.249H7.303C7.46561 12.2555 7.61941 12.3246 7.73217 12.442C7.84493 12.5593 7.90791 12.7158 7.90791 12.8785C7.90791 13.0412 7.84493 13.1977 7.73217 13.315C7.61941 13.4324 7.46561 13.5015 7.303 13.508ZM24 10.314C24 4.94301 18.615 0.572006 12 0.572006C5.385 0.572006 0 4.94301 0 10.314C0 15.125 4.27 19.156 10.035 19.922C10.426 20.004 10.958 20.18 11.093 20.512C11.213 20.813 11.172 21.278 11.131 21.592L10.967 22.612C10.922 22.913 10.727 23.798 12.016 23.257C13.307 22.718 18.932 19.179 21.452 16.282C23.176 14.393 24 12.458 24 10.314Z" fill="black"/>
</g>
<defs>
<clipPath id="clip0_19_2286">
<rect width="24" height="24" fill="white"/>
</clipPath>
</defs>
</svg>
