<svg width="24" height="24" viewBox="0 0 24 24" fill="none" xmlns="http://www.w3.org/2000/svg">
<path d="M15.85 8.14C16.24 8.14 16.62 8.17 16.99 8.22C16.31 5.25 13.19 3 9.43999 3C5.18999 3 1.73999 5.88 1.73999 9.43C1.73999 11.48 2.88999 13.29 4.67999 14.47L3.66999 16.5L6.42999 15.31C7.01999 15.52 7.63999 15.69 8.29999 15.78C8.20999 15.39 8.15999 14.99 8.15999 14.57C8.14999 11.03 11.6 8.14 15.85 8.14ZM12 5.89C12.53 5.89 12.96 6.32 12.96 6.85C12.96 7.38 12.53 7.81 12 7.81C11.47 7.81 11.04 7.38 11.04 6.85C11.04 6.32 11.47 5.89 12 5.89ZM6.86999 7.82C6.33999 7.82 5.90999 7.39 5.90999 6.86C5.90999 6.33 6.33999 5.9 6.86999 5.9C7.39999 5.9 7.82999 6.33 7.82999 6.86C7.82999 7.39 7.39999 7.82 6.86999 7.82Z" fill="black"/>
<path d="M22.26 14.57C22.26 11.73 19.39 9.43 15.85 9.43C12.31 9.43 9.43999 11.73 9.43999 14.57C9.43999 17.41 12.31 19.71 15.85 19.71C16.43 19.71 16.99 19.63 17.52 19.51L20.98 21L19.78 18.6C21.28 17.66 22.26 16.22 22.26 14.57ZM13.92 14.25C13.39 14.25 12.96 13.82 12.96 13.29C12.96 12.76 13.39 12.33 13.92 12.33C14.45 12.33 14.88 12.76 14.88 13.29C14.89 13.82 14.45 14.25 13.92 14.25ZM17.77 14.25C17.24 14.25 16.81 13.82 16.81 13.29C16.81 12.76 17.24 12.33 17.77 12.33C18.3 12.33 18.73 12.76 18.73 13.29C18.73 13.82 18.3 14.25 17.77 14.25Z" fill="black"/>
</svg>
