<svg width="24" height="24" viewBox="0 0 24 24" fill="none" xmlns="http://www.w3.org/2000/svg">
<path d="M11.6706 8.04914L11.72 8.83758L10.8968 8.74104C7.90033 8.37095 5.28257 7.11589 3.05994 5.00803L1.97332 3.96214L1.69343 4.73449C1.10073 6.45618 1.4794 8.27441 2.71419 9.49729C3.37275 10.1731 3.22458 10.2696 2.08857 9.86737C1.69343 9.73865 1.34769 9.64211 1.31476 9.69038C1.19951 9.80301 1.59465 11.2673 1.90746 11.8465C2.33552 12.651 3.20811 13.4395 4.16302 13.9061L4.96975 14.2762L4.01485 14.2923C3.09287 14.2923 3.05994 14.3084 3.15872 14.6463C3.488 15.6922 4.78865 16.8024 6.23748 17.2851L7.25824 17.623L6.36919 18.1379C5.05207 18.8781 3.50446 19.2964 1.95685 19.3286C1.21598 19.3447 0.606812 19.4091 0.606812 19.4573C0.606812 19.6182 2.61541 20.5193 3.78435 20.8733C7.29117 21.9192 11.4565 21.4687 14.5847 19.6826C16.8073 18.4115 19.0299 15.8852 20.0672 13.4395C20.627 12.1361 21.1867 9.75474 21.1867 8.61231C21.1867 7.87215 21.2361 7.7756 22.1581 6.89062C22.7014 6.37572 23.2118 5.81256 23.3106 5.65165C23.4752 5.34593 23.4587 5.34593 22.6191 5.61947C21.2197 6.10219 21.0221 6.03782 21.7136 5.31375C22.224 4.79885 22.8331 3.8656 22.8331 3.59206C22.8331 3.54379 22.5862 3.62424 22.3063 3.76906C22.0099 3.92996 21.3514 4.17132 20.8574 4.31613L19.9684 4.58967L19.1617 4.05869C18.7171 3.76906 18.0915 3.44725 17.7622 3.3507C16.9226 3.12543 15.6384 3.15762 14.881 3.41506C12.823 4.13914 11.5224 6.00564 11.6706 8.04914Z" fill="black"/>
</svg>
