<svg width="24" height="24" viewBox="0 0 24 24" fill="none" xmlns="http://www.w3.org/2000/svg">
<path d="M20.4229 14.0624L14.2678 13.8503L14.2677 13.8519C14.2677 13.8519 14.2136 13.8588 14.1984 13.8985C14.1984 13.8985 14.1857 13.9534 14.2214 13.9812C14.81 14.3989 16.594 15.635 17.4541 15.8746C17.4541 15.8746 19.0432 16.4122 20.4229 14.0624Z" fill="black"/>
<path d="M10.2004 13.8469C10.198 13.8465 10.1966 13.8461 10.1966 13.8461L4.04941 14.0585C4.71586 15.236 5.83879 16.1501 7.00849 15.8695C7.81578 15.6699 9.64418 14.4068 10.2475 13.9798L10.246 13.9786C10.2922 13.9363 10.2757 13.9027 10.2757 13.9027C10.2628 13.8558 10.2145 13.8489 10.2004 13.8469Z" fill="black"/>
<path d="M10.346 13.2642C7.64582 11.4603 2.41246 8.69081 2.41246 8.69081C1.93696 10.1496 2.57779 11.325 2.57779 11.325C3.24483 12.7215 4.51821 13.1445 4.51821 13.1445C5.10647 13.3834 5.69405 13.4 5.69405 13.4C5.78639 13.4165 9.35046 13.4013 10.3057 13.3971C10.346 13.3963 10.3685 13.3558 10.3685 13.3558C10.3945 13.3148 10.3582 13.2772 10.3483 13.2669C10.3468 13.2653 10.346 13.2642 10.346 13.2642Z" fill="black"/>
<path d="M21.9227 11.2685C21.9227 11.2685 22.5266 10.074 22.0599 8.67806C22.0599 8.67806 16.8338 11.4555 14.1326 13.2619C14.1326 13.2619 14.084 13.2934 14.1011 13.3503C14.1011 13.3503 14.126 13.3957 14.1643 13.3963C15.1312 13.3985 18.7934 13.4019 18.886 13.3853C18.886 13.3853 19.359 13.3666 19.9446 13.1445C19.9446 13.1445 21.2471 12.7342 21.9227 11.2685Z" fill="black"/>
<path d="M10.8646 12.5703C8.51395 7.48467 5.29921 3.6294 5.29921 3.6294C5.29921 3.6294 3.55059 5.27432 3.67496 6.92089C3.74154 8.1672 4.6882 8.90502 4.6882 8.90502C6.21351 10.3769 9.90649 12.2358 10.7649 12.6575C10.7768 12.6619 10.8208 12.6765 10.8471 12.6439C10.8471 12.6439 10.8829 12.6164 10.8646 12.5703Z" fill="black"/>
<path d="M20.7959 6.91254C20.9072 5.20735 19.1746 3.6294 19.1746 3.6294C19.1746 3.6294 15.9689 7.47274 13.6211 12.5468C13.6211 12.5468 13.5938 12.6054 13.638 12.6439C13.638 12.6439 13.6807 12.6753 13.7214 12.65C14.6016 12.2164 18.2665 10.3699 19.7843 8.90502L19.7926 8.89824C19.8865 8.82016 20.7483 8.07281 20.7959 6.91254Z" fill="black"/>
<path d="M14.6686 1.18691C14.6686 1.18691 14.1987 1.06968 13.7007 1C13.7007 1 11.8783 3.32313 12.7654 12.0888C12.7718 12.1441 12.8124 12.1556 12.8124 12.1556C12.8658 12.1764 12.8957 12.1321 12.9012 12.1241L12.9021 12.1228C13.4918 11.2776 16.1498 7.37539 16.6902 4.99709C16.6902 4.99709 16.9837 3.84527 16.7004 3.06574C16.7004 3.06574 16.2986 1.57995 14.6686 1.18691Z" fill="black"/>
<path d="M11.705 12.0825C12.5894 3.32187 10.7768 1 10.7768 1C10.5092 1.02294 9.78715 1.18598 9.78715 1.18598C8.15956 1.60197 7.77487 3.06574 7.77487 3.06574C7.47757 3.9865 7.7824 4.99709 7.7824 4.99709C8.32609 7.38487 10.9995 11.3082 11.5739 12.1319C11.6143 12.1725 11.6467 12.1576 11.6467 12.1576C11.7019 12.1422 11.7044 12.0936 11.7049 12.0841L11.705 12.0825Z" fill="black"/>
<path d="M6.13609 20.5059V18.3784H5.3703V20.5318C5.3703 21.5869 5.96016 22.192 6.98882 22.192C8.02728 22.192 8.62281 21.5756 8.62281 20.5007V18.3784H7.85702V20.5318C7.85702 21.1417 7.55232 21.4673 6.99909 21.4673C6.4426 21.4673 6.13609 21.1326 6.13609 20.5059Z" fill="black"/>
<path d="M10.6739 18.3784H11.3434L13.008 22.1258H12.2054L11.8639 21.3265H10.1364L10.1134 21.3807L9.7901 22.1277H9.00837L10.6739 18.3784ZM11.5443 20.5713L10.9983 19.3293L10.4568 20.5713H10.4579L10.4213 20.6575H11.5791L11.5425 20.5713H11.5443Z" fill="black"/>
<path d="M21.7881 19.0617V18.3785H19.0105V22.1246H21.8607V21.4414H19.766V20.5127H21.1591V19.8295H19.766V19.0617H21.7881Z" fill="black"/>
<path d="M23.4963 22.1246V18.3784H22.7409V22.1246H23.4963Z" fill="black"/>
<path d="M16.708 20.9306L15.851 18.3785H15.226L14.369 20.9306L13.5371 18.3888H12.7219L14.0355 22.1205H14.6698L15.5281 19.6532L16.3862 22.1205H17.0257L18.3342 18.3888H17.54L16.708 20.9306Z" fill="black"/>
<path d="M1.76888 19.8238V18.3124H1V22.0708H1.76888V20.5386H3.50481V22.0708H4.27349V18.3125H3.50481V19.8238H1.76888Z" fill="black"/>
</svg>
