<svg width="24" height="24" viewBox="0 0 24 24" fill="none" xmlns="http://www.w3.org/2000/svg">
<path d="M11.9031 23.2076H11.8985C10.0408 23.207 8.21539 22.7409 6.59415 21.8566L0.709961 23.4001L2.28467 17.6483C1.31331 15.9649 0.802189 14.0554 0.803022 12.0991C0.805457 5.97912 5.78484 1 11.903 1C14.8723 1.00128 17.6592 2.15723 19.7549 4.25533C21.8505 6.35333 23.004 9.14207 23.0028 12.1079C23.0004 18.2265 18.023 23.2051 11.9031 23.2076ZM6.86693 19.8471L7.20382 20.047C8.6203 20.8876 10.244 21.3324 11.8995 21.333H11.9032C16.9882 21.333 21.1268 17.1943 21.1288 12.1072C21.1298 9.64206 20.1711 7.32418 18.4293 5.58032C16.6874 3.83646 14.371 2.87562 11.9069 2.87476C6.81798 2.87476 2.67928 7.01308 2.67727 12.0997C2.67655 13.843 3.1643 15.5407 4.08782 17.0095L4.30717 17.3586L3.37517 20.763L6.86693 19.8471ZM17.1154 14.4977C17.3088 14.5912 17.4395 14.6543 17.4953 14.7474C17.5646 14.8631 17.5646 15.4184 17.3336 16.0663C17.1024 16.7142 15.9943 17.3054 15.4614 17.385C14.9836 17.4565 14.379 17.4863 13.7146 17.2751C13.3118 17.1473 12.7952 16.9767 12.1335 16.6909C9.53341 15.5682 7.77629 13.0482 7.4442 12.5719C7.42094 12.5385 7.40466 12.5152 7.39559 12.5031L7.39335 12.5001C7.24657 12.3042 6.26311 10.9921 6.26311 9.63402C6.26311 8.35648 6.89065 7.68686 7.17951 7.37864C7.1993 7.35752 7.2175 7.3381 7.2338 7.3203C7.48802 7.04263 7.78851 6.97321 7.97339 6.97321C8.15827 6.97321 8.34336 6.97492 8.50496 6.98304C8.52489 6.98404 8.54563 6.98392 8.56707 6.98379C8.7287 6.98284 8.93019 6.98166 9.12897 7.45913C9.20544 7.64287 9.31733 7.91527 9.43534 8.20257C9.674 8.78359 9.93769 9.42556 9.98408 9.51846C10.0534 9.6573 10.0996 9.8192 10.0072 10.0044C9.99332 10.0321 9.98049 10.0584 9.96823 10.0834C9.89879 10.2251 9.84771 10.3294 9.72987 10.467C9.68353 10.5211 9.63563 10.5795 9.58774 10.6378C9.49232 10.754 9.39691 10.8702 9.31383 10.9529C9.17499 11.0912 9.03045 11.2413 9.19224 11.519C9.35402 11.7966 9.91064 12.7048 10.7351 13.4403C11.6214 14.2308 12.3917 14.5649 12.7822 14.7343C12.8585 14.7674 12.9202 14.7942 12.9655 14.8168C13.2428 14.9557 13.4046 14.9325 13.5664 14.7474C13.7282 14.5623 14.2597 13.9375 14.4445 13.6599C14.6294 13.3824 14.8144 13.4286 15.0685 13.5211C15.3228 13.6138 16.6864 14.2846 16.9637 14.4235C17.0179 14.4506 17.0685 14.475 17.1154 14.4977Z" fill="black"/>
</svg>
