<svg width="24" height="24" viewBox="0 0 24 24" fill="none" xmlns="http://www.w3.org/2000/svg">
<path d="M10 21L10 1.47839L4.2718 7.56461C3.89329 7.96678 3.91246 8.59965 4.31464 8.97817C4.71681 9.35669 5.34969 9.33751 5.7282 8.93534L8 6.52155C8 6.52155 8 8.0188 8 8.97817C8 13.673 8 21 8 21C8 21.5523 8.44772 22 9 22C9.55229 22 10 21.5523 10 21Z" fill="black"/>
<path d="M14 3.00003V22.5216L19.7282 16.4354C20.1067 16.0332 20.0875 15.4003 19.6854 15.0218C19.2832 14.6433 18.6503 14.6625 18.2718 15.0647L16 17.4785V3.00003C16 2.44775 15.5523 2.00003 15 2.00003C14.4477 2.00003 14 2.44775 14 3.00003Z" fill="black"/>
</svg>
