<svg width="24" height="24" viewBox="0 0 24 24" fill="none" xmlns="http://www.w3.org/2000/svg">
<path d="M11.7417 17.9259C11.9006 17.83 12.0995 17.83 12.2584 17.9259L17.1655 20.8876C17.5442 21.1162 18.0113 20.7767 17.9108 20.346L16.6086 14.7639C16.5664 14.5831 16.6278 14.3939 16.7681 14.2723L21.1043 10.5159C21.4386 10.2263 21.2599 9.67716 20.8192 9.63977L15.1105 9.15544C14.9257 9.13976 14.7647 9.02309 14.6924 8.85234L12.4604 3.58614C12.2881 3.17962 11.712 3.17962 11.5397 3.58614L9.30768 8.85234C9.23531 9.02309 9.07438 9.13976 8.88959 9.15544L3.18084 9.63977C2.74013 9.67716 2.56142 10.2263 2.89572 10.5159L7.23192 14.2723C7.3722 14.3939 7.43363 14.5831 7.39146 14.7639L6.08923 20.346C5.98875 20.7767 6.45587 21.1162 6.83452 20.8876L11.7417 17.9259Z" fill="black"/>
</svg>
