<svg width="24" height="24" viewBox="0 0 24 24" fill="none" xmlns="http://www.w3.org/2000/svg">
<path d="M21.1079 10.5143C21.4415 10.2248 21.2632 9.6765 20.8231 9.63855L14.81 9.12004L12.4606 3.58515C12.2882 3.17885 11.7123 3.17901 11.54 3.5854L9.19002 9.13004L3.18084 9.63986C2.74013 9.67725 2.56142 10.2264 2.89572 10.516L7.46002 14.47L6.08923 20.3461C5.98875 20.7768 6.45587 21.1163 6.83452 20.8877L12 17.77L17.1674 20.8889C17.5458 21.1173 18.0127 20.7784 17.9129 20.3479L16.55 14.47L21.1079 10.5143ZM12 15.9L8.24002 18.17L9.24002 13.89L5.92002 11.01L10.3 10.63L12 6.60004L13.71 10.64L18.09 11.02L14.77 13.9L15.77 18.18L12 15.9Z" fill="black"/>
</svg>
