<svg width="24" height="24" viewBox="0 0 24 24" fill="none" xmlns="http://www.w3.org/2000/svg">
<path d="M16.9234 6.1021C16.5587 6.58833 16.8164 7.30052 17.3525 7.58689C18.928 8.42848 20 10.089 20 12C20 14.7614 17.7614 17 15 17H13L13.795 15.94C14.24 15.3467 13.8166 14.5 13.075 14.5H12.975C12.5973 14.5 12.2416 14.6778 12.015 14.98L9 19H15C18.866 19 22 15.866 22 12C22 9.2841 20.4533 6.92945 18.1927 5.76884C17.7505 5.54181 17.2217 5.70444 16.9234 6.1021Z" fill="black"/>
<path d="M9 5.00024C5.13401 5.00024 2 8.13425 2 12.0002C2 14.7161 3.54662 17.0707 5.80714 18.2313C6.24935 18.4584 6.77821 18.2957 7.07646 17.8981C7.44112 17.4119 7.18346 16.6997 6.64739 16.4133C5.07198 15.5717 4 13.9112 4 12.0002C4 9.23882 6.23858 7.00024 9 7.00024H11L10.2051 8.05999C9.76013 8.6533 10.1835 9.5 10.9251 9.5C11.3658 9.5 11.7807 9.29253 12.0451 8.94002L15 5.00024H9Z" fill="black"/>
</svg>
