<svg width="24" height="24" viewBox="0 0 24 24" fill="none" xmlns="http://www.w3.org/2000/svg">
<path fill-rule="evenodd" clip-rule="evenodd" d="M10.8295 3.28562C10.9115 2.73945 10.5351 2.23027 9.98894 2.14835C9.44276 2.06642 8.93359 2.44277 8.85166 2.98894L8.25 7.00001H5C4.44772 7.00001 4 7.44772 4 8.00001C4 8.55229 4.44772 9.00001 5 9.00001H7.95L7.05 15H5C4.44772 15 4 15.4477 4 16C4 16.5523 4.44772 17 5 17H6.75L6.14834 21.0111C6.06641 21.5572 6.44276 22.0664 6.98894 22.1483C7.53511 22.2303 8.04429 21.8539 8.12621 21.3078L8.77237 17H13.75L13.1483 21.0111C13.0664 21.5572 13.4428 22.0664 13.9889 22.1483C14.5351 22.2303 15.0443 21.8539 15.1262 21.3078L15.7724 17H19C19.5523 17 20 16.5523 20 16C20 15.4477 19.5523 15 19 15H16.0724L16.9724 9.00001H19C19.5523 9.00001 20 8.55229 20 8.00001C20 7.44772 19.5523 7.00001 19 7.00001H17.2724L17.8295 3.28562C17.9115 2.73945 17.5351 2.23027 16.9889 2.14835C16.4428 2.06642 15.9336 2.44277 15.8517 2.98894L15.25 7.00001H10.2724L10.8295 3.28562ZM14.05 15L14.95 9.00001H9.97237L9.07237 15H14.05Z" fill="black"/>
</svg>
