<svg width="24" height="24" viewBox="0 0 24 24" fill="none" xmlns="http://www.w3.org/2000/svg">
<path d="M18.9687 12.9667L14.6522 10.8238C14.221 10.6097 13.7546 10.4752 13.2755 10.4268L12.35 10.3333V3.66667C12.35 2.74444 11.5907 2 10.65 2C9.70934 2 8.95001 2.74444 8.95001 3.66667V14.9859C8.95001 15.3028 8.65641 15.5392 8.3461 15.475C4.8765 14.7567 4.93034 14.7667 4.79067 14.7667C4.43934 14.7667 4.12201 14.9111 3.89534 15.1333C3.40283 15.6223 3.40534 16.4196 3.90091 16.9055L8.59867 21.5111C8.90467 21.8111 9.33534 22 9.80001 22H17.4953C18.3453 22 19.0027 21.3889 19.1273 20.5778L19.9773 14.7222C19.9887 14.6444 20 14.5667 20 14.5C20 13.8111 19.5693 13.2111 18.9687 12.9667Z" fill="black"/>
</svg>
