<svg width="24" height="24" viewBox="0 0 24 24" fill="none" xmlns="http://www.w3.org/2000/svg">
<path d="M18.9687 11.0333L14.6522 13.1762C14.221 13.3903 13.7546 13.5248 13.2755 13.5732L12.35 13.6667V20.3333C12.35 21.2556 11.5907 22 10.65 22C9.70934 22 8.95001 21.2556 8.95001 20.3333V9.01408C8.95001 8.69719 8.65641 8.46077 8.3461 8.52501C4.8765 9.24332 4.93034 9.23333 4.79067 9.23333C4.43934 9.23333 4.12201 9.08889 3.89534 8.86667C3.40283 8.3777 3.40534 7.58039 3.90091 7.09453L8.59867 2.48889C8.90467 2.18889 9.33534 2 9.80001 2H17.4953C18.3453 2 19.0027 2.61111 19.1273 3.42222L19.9773 9.27778C19.9887 9.35555 20 9.43333 20 9.5C20 10.1889 19.5693 10.7889 18.9687 11.0333Z" fill="black"/>
</svg>
