<svg width="24" height="24" viewBox="0 0 24 24" fill="none" xmlns="http://www.w3.org/2000/svg">
<path d="M10.003 1H14.003C14.553 1 15.003 1.45 15.003 2C15.003 2.55 14.553 3 14.003 3H10.003C9.45303 3 9.00303 2.55 9.00303 2C9.00303 1.45 9.45303 1 10.003 1Z" fill="black"/>
<path fill-rule="evenodd" clip-rule="evenodd" d="M19.783 6.64L19.033 7.39C20.263 8.93 21.003 10.88 21.003 13C21.003 17.97 16.983 22 12.003 22C6.94303 22 2.87303 17.84 3.00303 12.76C3.12303 7.96 7.20303 4 12.003 4C14.123 4 16.073 4.74 17.623 5.98L18.373 5.23C18.763 4.85 19.383 4.84 19.773 5.23L19.783 5.24C20.173 5.63 20.163 6.26 19.783 6.64ZM12 8.5C11.4477 8.5 11 8.94772 11 9.5V13.5C11 14.0523 11.4477 14.5 12 14.5C12.5523 14.5 13 14.0523 13 13.5V9.5C13 8.94772 12.5523 8.5 12 8.5Z" fill="black"/>
</svg>
