<svg width="24" height="24" viewBox="0 0 24 24" fill="none" xmlns="http://www.w3.org/2000/svg">
<path d="M10 14.5C9.44772 14.5 9 14.9477 9 15.5C9 16.0523 9.44772 16.5 10 16.5H14C14.5523 16.5 15 16.0523 15 15.5C15 14.9477 14.5523 14.5 14 14.5H10Z" fill="black"/>
<path d="M9 9V7C9 5.34315 10.3431 4 12 4C13.3831 4 14.5477 4.93602 14.8947 6.20917C15.0109 6.63545 15.3582 7 15.8 7V7C16.4627 7 17.0148 6.45492 16.8578 5.81105C16.3242 3.62361 14.3517 2 12 2C9.23858 2 7 4.23858 7 7V9H5.5C4.67157 9 4 9.67157 4 10.5V20.5C4 21.3284 4.67157 22 5.5 22H18.5C19.3284 22 20 21.3284 20 20.5V10.5C20 9.67157 19.3284 9 18.5 9H9ZM6 11H18V20H6V11Z" fill="black"/>
</svg>
