<svg width="24" height="24" viewBox="0 0 24 24" fill="none" xmlns="http://www.w3.org/2000/svg">
<path d="M9 7V9H18.5C19.3284 9 20 9.67157 20 10.5V20.5C20 21.3284 19.3284 22 18.5 22H5.5C4.67157 22 4 21.3284 4 20.5V10.5C4 9.67157 4.67157 9 5.5 9H7V7C7 4.23858 9.23858 2 12 2C14.3517 2 16.3242 3.62361 16.8578 5.81105C17.0148 6.45492 16.4627 7 15.8 7C15.3582 7 15.0109 6.63545 14.8947 6.20917C14.5477 4.93602 13.3831 4 12 4C10.3431 4 9 5.34315 9 7ZM9 15.5C9 16.0523 9.44772 16.5 10 16.5H14C14.5523 16.5 15 16.0523 15 15.5C15 14.9477 14.5523 14.5 14 14.5H10C9.44772 14.5 9 14.9477 9 15.5Z" fill="black"/>
</svg>
