<svg width="24" height="24" viewBox="0 0 24 24" fill="none" xmlns="http://www.w3.org/2000/svg">
<path d="M12 4.5C7.20931 4.5 3.08878 7.35507 1.23048 11.4555C1.07368 11.8015 1.07368 12.1985 1.23048 12.5445C3.08878 16.6449 7.20931 19.5 12 19.5C16.7907 19.5 20.9112 16.6449 22.7695 12.5445C22.9263 12.1985 22.9263 11.8015 22.7695 11.4555C20.9112 7.35507 16.7907 4.5 12 4.5ZM12 17C9.24 17 7 14.76 7 12C7 9.24 9.24 7 12 7C14.76 7 17 9.24 17 12C17 14.76 14.76 17 12 17ZM12 9C10.34 9 9 10.34 9 12C9 13.66 10.34 15 12 15C13.66 15 15 13.66 15 12C15 10.34 13.66 9 12 9Z" fill="black"/>
</svg>
