<svg width="24" height="24" viewBox="0 0 24 24" fill="none" xmlns="http://www.w3.org/2000/svg">
<path d="M12 5.97505C15.79 5.97505 19.17 8.10505 20.82 11.475C20.23 12.695 19.4 13.745 18.41 14.595L19.82 16.005C21.0651 14.9033 22.0775 13.5528 22.7709 12.0183C22.927 11.673 22.9265 11.2772 22.7701 10.932C20.9122 6.83076 16.7912 3.97505 12 3.97505C10.73 3.97505 9.51 4.17505 8.36 4.54505L10.01 6.19505C10.66 6.06505 11.32 5.97505 12 5.97505ZM10.93 7.11505L13 9.18505C13.57 9.43505 14.03 9.89505 14.28 10.465L16.35 12.535C16.43 12.195 16.49 11.835 16.49 11.465C16.5 8.98505 14.48 6.97505 12 6.97505C11.63 6.97505 11.28 7.02505 10.93 7.11505ZM2.71241 3.13766C2.32424 3.52858 2.32506 4.16011 2.71461 4.54966L4.69 6.52505C3.21162 7.68599 2.01293 9.19242 1.22822 10.9324C1.07266 11.2774 1.07335 11.6726 1.22949 12.0173C3.08731 16.119 7.20845 18.975 12 18.975C13.52 18.975 14.98 18.685 16.32 18.155L19.0349 20.8699C19.4243 21.2594 20.0557 21.2594 20.4451 20.8699C20.8344 20.4806 20.8345 19.8494 20.4453 19.4599L4.12961 3.13506C3.73814 2.74337 3.1026 2.7447 2.71241 3.13766ZM9.51 11.345L12.12 13.955C12.08 13.965 12.04 13.975 12 13.975C10.62 13.975 9.5 12.855 9.5 11.475C9.5 11.425 9.51 11.395 9.51 11.345ZM6.11 7.94505L7.86 9.69505C7.63 10.245 7.5 10.845 7.5 11.475C7.5 13.955 9.52 15.975 12 15.975C12.63 15.975 13.23 15.845 13.77 15.615L14.75 16.595C13.87 16.835 12.95 16.975 12 16.975C8.21 16.975 4.83 14.845 3.18 11.475C3.88 10.045 4.9 8.86505 6.11 7.94505Z" fill="black"/>
</svg>
