<svg width="24" height="24" viewBox="0 0 24 24" fill="none" xmlns="http://www.w3.org/2000/svg">
<path d="M12.005 6.5C14.765 6.5 17.005 8.74 17.005 11.5C17.005 12.15 16.875 12.76 16.645 13.33L19.565 16.25C20.9261 15.1143 22.0272 13.6779 22.7657 12.0435C22.9218 11.698 22.9215 11.302 22.765 10.9566C20.907 6.85558 16.7861 4 11.995 4C10.595 4 9.25501 4.25 8.01501 4.7L10.175 6.86C10.745 6.63 11.355 6.5 12.005 6.5ZM2.64 3.135C2.2893 3.4857 2.2893 4.0543 2.64 4.405L4.745 6.51C3.239 7.68033 2.02931 9.20457 1.23538 10.9558C1.07856 11.3017 1.07867 11.6984 1.23544 12.0444C3.09372 16.1449 7.21428 19 12.005 19C13.555 19 15.035 18.7 16.385 18.16L16.805 18.58L19.0995 20.8666C19.4506 21.2166 20.0189 21.2161 20.3695 20.8655V20.8655C20.7205 20.5145 20.7205 19.9455 20.3695 19.5945L3.91 3.135C3.5593 2.7843 2.99071 2.7843 2.64 3.135V3.135ZM7.53501 9.3L9.085 10.85C9.035 11.06 9.005 11.28 9.005 11.5C9.005 13.16 10.345 14.5 12.005 14.5C12.225 14.5 12.445 14.47 12.655 14.42L14.205 15.97C13.535 16.3 12.795 16.5 12.005 16.5C9.245 16.5 7.005 14.26 7.005 11.5C7.005 10.71 7.20501 9.97 7.53501 9.3ZM11.845 8.52L14.995 11.67L15.015 11.51C15.015 9.85 13.675 8.51 12.015 8.51L11.845 8.52Z" fill="black"/>
</svg>
