<svg width="24" height="24" viewBox="0 0 24 24" fill="none" xmlns="http://www.w3.org/2000/svg">
<path d="M10.9999 10.0001C10.9999 9.44782 11.4477 9.0001 11.9999 9.0001C12.5522 9.0001 12.9999 9.44782 12.9999 10.0001V13.0001C12.9999 13.5524 12.5522 14.0001 11.9999 14.0001C11.4477 14.0001 10.9999 13.5524 10.9999 13.0001V10.0001Z" fill="black"/>
<path d="M10.9999 16.5001C10.9999 15.9478 11.4477 15.5001 11.9999 15.5001C12.5522 15.5001 12.9999 15.9478 12.9999 16.5001C12.9999 17.0524 12.5522 17.5001 11.9999 17.5001C11.4477 17.5001 10.9999 17.0524 10.9999 16.5001Z" fill="black"/>
<path d="M10.7018 3.74234C11.2795 2.74442 12.7203 2.74441 13.2981 3.74234L21.6964 18.2485C22.2754 19.2485 21.5538 20.5001 20.3983 20.5001H3.60161C2.44611 20.5001 1.72452 19.2486 2.30347 18.2486L10.7018 3.74234ZM19.5299 18.5001L11.9999 5.4901L4.46994 18.5001H19.5299Z" fill="black"/>
</svg>
